<svg width="31" height="30" viewBox="0 0 31 30" fill="none" xmlns="http://www.w3.org/2000/svg">
<g clip-path="url(#clip0_172_1006)">
<path d="M31 15.0901C30.9997 12.2236 30.1506 9.41718 28.5533 7.00316C26.9561 4.58913 24.6775 2.66856 21.9873 1.46882C19.2972 0.269078 16.3082 -0.159592 13.3741 0.233559C10.4401 0.626709 7.68384 1.82522 5.43177 3.68719C3.1797 5.54916 1.52609 7.99663 0.666704 10.7398C-0.19268 13.483 -0.221847 16.4071 0.582655 19.1659C1.38716 21.9246 2.99164 24.4025 5.20615 26.3062C7.42066 28.2099 10.1525 29.4597 13.0781 29.9076V19.4263H9.14242V15.0901H13.0781V11.7851C13.0781 8.02632 15.3928 5.94882 18.932 5.94882C20.0946 5.96496 21.2546 6.06271 22.4027 6.24132V9.93382H20.4471C19.8584 9.85819 19.2628 10.0119 18.7912 10.3612C18.3196 10.7104 18.0106 11.2267 17.9322 11.7963C17.9101 11.9558 17.9066 12.1173 17.9219 12.2776V15.0901H22.2167L21.5295 19.4263H17.9128V29.9076C21.5606 29.3513 24.8832 27.553 27.2825 24.8364C29.6818 22.1199 31.0001 18.6637 31 15.0901Z" fill="white"/>
</g>
<defs>
<clipPath id="clip0_172_1006">
<rect width="31" height="30" fill="white"/>
</clipPath>
</defs>
</svg>
