<svg width="309" height="91" viewBox="0 0 309 91" fill="none" xmlns="http://www.w3.org/2000/svg">
<g clip-path="url(#clip0_28_141)">
<path d="M29.6717 54.8132C28.3728 53.4586 26.6452 52.405 24.5015 51.6775C22.3452 50.95 19.6592 50.5862 16.431 50.5862C15.1574 50.5862 13.8963 50.6489 12.6479 50.7744C11.3995 50.8998 10.2142 51.0378 9.09186 51.2134C7.96955 51.389 6.92291 51.5771 5.97714 51.7903C5.01877 52.0036 4.22433 52.2168 3.59382 52.405L4.99355 61.16C6.31762 60.6708 7.88128 60.2945 9.68454 60.0311C11.4878 59.7677 13.3289 59.6298 15.1826 59.6298C17.9694 59.6298 19.924 60.1942 21.0463 61.3105C22.1686 62.4269 22.7361 63.907 22.7361 65.7633V66.7793C22.0551 66.5912 21.1598 66.4281 20.0627 66.3027C18.9656 66.1772 17.7046 66.1145 16.2797 66.1145C14.1738 66.1145 12.1435 66.3278 10.1889 66.7291C8.23437 67.1431 6.49416 67.8078 4.98094 68.736C3.46772 69.6642 2.25714 70.906 1.3492 72.4613C0.441271 74.0167 -0.0126953 75.9107 -0.0126953 78.1559C-0.0126953 80.4011 0.37822 82.4582 1.16005 84.0637C1.94188 85.6692 3.06419 86.9737 4.52697 87.9646C5.98975 88.9555 7.74257 89.683 9.77281 90.122C11.8031 90.561 14.0603 90.7742 16.5571 90.7742C20.5167 90.7742 23.8962 90.5484 26.6831 90.0843C29.4699 89.6203 31.6515 89.2189 33.2151 88.8802V66.2651C33.2151 63.8819 32.9503 61.7245 32.4081 59.7677C31.8659 57.8236 30.9579 56.1679 29.6591 54.8007L29.6717 54.8132ZM22.7361 82.0944C22.156 82.1947 21.3616 82.27 20.3906 82.3076C19.407 82.3578 18.3856 82.3829 17.3137 82.3829C15.3087 82.3829 13.7324 82.0568 12.5849 81.392C11.4374 80.7398 10.8573 79.5607 10.8573 77.8548C10.8573 76.9768 11.059 76.2493 11.45 75.6598C11.8409 75.0828 12.3831 74.6187 13.0641 74.2675C13.745 73.9289 14.5395 73.6905 15.4474 73.5777C16.3553 73.4522 17.3137 73.3895 18.3477 73.3895C19.0791 73.3895 19.8862 73.4397 20.7689 73.54C21.6516 73.6404 22.3073 73.7407 22.7487 73.8285V82.0693L22.7361 82.0944Z" fill="#1B1C3B"/>
<path d="M71.4366 55.616C70.163 54.0606 68.4354 52.8565 66.2665 52.0036C64.0849 51.1506 61.3611 50.7242 58.0824 50.7242C54.8038 50.7242 51.7773 50.95 48.8392 51.4141C45.901 51.8781 43.5051 52.3799 41.6514 52.9067V89.9715H52.5844V60.3447C53.2654 60.2444 54.0472 60.1691 54.9299 60.0939C55.8126 60.0186 56.6449 59.981 57.4267 59.981C59.974 59.981 61.7016 60.7085 62.6347 62.1635C63.5679 63.6185 64.0344 66.102 64.0344 69.6015V89.9589H74.9675V68.2845C74.9675 65.663 74.7027 63.2798 74.1604 61.1349C73.6182 58.9901 72.7229 57.1462 71.4492 55.5909L71.4366 55.616Z" fill="#1B1C3B"/>
<path d="M83.3911 89.984H94.3242V51.6022V49.8587L83.3911 51.6022V89.984Z" fill="#1B1C3B"/>
<path d="M153.365 55.616C152.192 54.0606 150.616 52.8565 148.636 52.0036C146.656 51.1506 144.122 50.7242 141.045 50.7242C139.33 50.7242 137.464 51.0378 135.433 51.6775C133.403 52.3172 131.612 53.1826 130.049 54.299C128.926 53.3206 127.489 52.4928 125.761 51.7778C124.021 51.0754 121.764 50.7242 118.977 50.7242C117.565 50.7242 116.115 50.7869 114.652 50.8998C113.189 51.0252 111.751 51.1883 110.364 51.4141C108.965 51.6273 107.653 51.8781 106.405 52.1416C105.156 52.405 104.072 52.6684 103.139 52.9067V89.9715H114.072V60.3447C114.753 60.2444 115.459 60.1691 116.203 60.0939C116.934 60.0186 117.64 59.981 118.334 59.981C120.541 59.981 122.092 60.7085 122.987 62.1635C123.895 63.6185 124.349 66.102 124.349 69.6015V89.9589H135.282V69.0245C135.282 67.6197 135.232 66.2901 135.131 65.0484C135.03 63.8066 134.815 62.6276 134.475 61.5112C135.156 61.0722 136.026 60.7085 137.085 60.42C138.132 60.1315 138.952 59.981 139.544 59.981C141.751 59.981 143.302 60.7085 144.197 62.1635C145.105 63.6185 145.559 66.102 145.559 69.6015V89.9589H156.492V68.2845C156.492 65.663 156.278 63.2798 155.837 61.1349C155.395 58.9901 154.588 57.1462 153.415 55.5909L153.365 55.616Z" fill="#1B1C3B"/>
<path d="M191.977 54.8132C190.679 53.4586 188.951 52.405 186.807 51.6775C184.651 50.95 181.965 50.5862 178.737 50.5862C177.463 50.5862 176.202 50.6489 174.954 50.7744C173.705 50.8998 172.52 51.0378 171.398 51.2134C170.275 51.389 169.229 51.5771 168.283 51.7903C167.324 52.0036 166.53 52.2168 165.899 52.405L167.299 61.16C168.623 60.6708 170.187 60.2945 171.99 60.0311C173.793 59.7677 175.635 59.6298 177.488 59.6298C180.275 59.6298 182.23 60.1942 183.352 61.3105C184.474 62.4269 185.042 63.907 185.042 65.7633V66.7793C184.361 66.5912 183.465 66.4281 182.368 66.3027C181.271 66.1772 180.01 66.1145 178.585 66.1145C176.479 66.1145 174.449 66.3278 172.495 66.7291C170.54 67.1431 168.8 67.8078 167.287 68.736C165.773 69.6642 164.563 70.906 163.655 72.4613C162.747 74.0167 162.293 75.9107 162.293 78.1559C162.293 80.4011 162.684 82.4582 163.466 84.0637C164.248 85.6692 165.37 86.9737 166.833 87.9646C168.295 88.9555 170.048 89.683 172.078 90.122C174.109 90.561 176.366 90.7742 178.863 90.7742C182.822 90.7742 186.202 90.5484 188.989 90.0843C191.776 89.6203 193.957 89.2189 195.521 88.8802V66.2651C195.521 63.8819 195.256 61.7245 194.714 59.7677C194.172 57.8236 193.264 56.1679 191.965 54.8007L191.977 54.8132ZM185.042 82.0944C184.462 82.1947 183.667 82.27 182.696 82.3076C181.713 82.3578 180.691 82.3829 179.619 82.3829C177.614 82.3829 176.038 82.0568 174.891 81.392C173.743 80.7398 173.163 79.5607 173.163 77.8548C173.163 76.9768 173.365 76.2493 173.756 75.6598C174.147 75.0828 174.689 74.6187 175.37 74.2675C176.051 73.9289 176.845 73.6905 177.753 73.5777C178.661 73.4522 179.619 73.3895 180.653 73.3895C181.385 73.3895 182.192 73.4397 183.075 73.54C183.957 73.6404 184.613 73.7407 185.054 73.8285V82.0693L185.042 82.0944Z" fill="#1B1C3B"/>
<path d="M224.247 81.3418C222.998 81.5551 221.788 81.668 220.615 81.668C218.169 81.668 216.542 80.9906 215.735 79.6234C214.928 78.2688 214.524 76.4375 214.524 74.1547V60.6583H227.652V51.6148H214.524V40.3009L203.591 42.0569V74.3052C203.591 76.7887 203.818 79.0465 204.285 81.091C204.751 83.1355 205.571 84.879 206.744 86.3089C207.917 87.7388 209.48 88.8677 211.435 89.6704C213.389 90.4732 215.861 90.8746 218.85 90.8746C221.195 90.8746 223.175 90.6739 224.789 90.2976C226.403 89.9088 227.866 89.4447 229.19 88.9053L227.652 80.4387C226.63 80.8276 225.483 81.1286 224.247 81.3544V81.3418Z" fill="#1B1C3B"/>
<path d="M250.249 50.5862C247.903 50.5862 245.621 51.0252 243.389 51.9032C241.17 52.7813 239.19 54.0732 237.487 55.7665C235.773 57.4724 234.398 59.5921 233.339 62.1509C232.292 64.7097 231.762 67.6824 231.762 71.0816C231.762 73.9038 232.166 76.5253 232.973 78.9586C233.78 81.392 235.028 83.4992 236.718 85.2678C238.408 87.0489 240.539 88.4412 243.099 89.4572C245.671 90.4732 248.685 90.9875 252.153 90.9875C253.515 90.9875 254.89 90.9122 256.264 90.7742C257.626 90.6237 258.912 90.4481 260.11 90.2223C261.308 90.0091 262.393 89.7457 263.376 89.4572C264.347 89.1687 265.142 88.8677 265.722 88.5792L264.259 79.7489C263.036 80.2882 261.459 80.7398 259.53 81.1035C257.601 81.4673 255.634 81.6554 253.629 81.6554C250.501 81.6554 248.004 81.0032 246.151 79.6861C244.297 78.3691 243.238 76.6005 242.998 74.3553H267.79C267.84 73.7658 267.891 73.101 267.941 72.3484C267.992 71.5959 268.017 70.906 268.017 70.2663C268.017 63.7941 266.428 58.9023 263.25 55.5658C260.072 52.2294 255.747 50.5737 250.274 50.5737L250.249 50.5862ZM242.986 66.9298C243.137 66.0017 243.364 65.0985 243.679 64.1954C243.994 63.2923 244.448 62.5021 245.041 61.8248C245.621 61.1475 246.365 60.5956 247.235 60.1817C248.118 59.7677 249.165 59.5545 250.388 59.5545C251.611 59.5545 252.721 59.7677 253.578 60.2068C254.436 60.6458 255.142 61.2102 255.709 61.8875C256.277 62.5648 256.693 63.3425 256.958 64.2205C257.222 65.0986 257.386 66.0016 257.437 66.9173H242.986V66.9298Z" fill="#1B1C3B"/>
<path d="M4.23695 21.4863H11.3995V24.3085H4.23695V32.9883C4.23695 33.929 4.31261 34.7067 4.45132 35.3213C4.60265 35.9359 4.81702 36.4251 5.10705 36.7637C5.39709 37.1149 5.76278 37.3658 6.20414 37.5038C6.6455 37.6543 7.14991 37.717 7.72997 37.717C8.7514 37.717 9.57106 37.6041 10.189 37.3784C10.8069 37.1526 11.2356 36.9895 11.4752 36.8892L12.1309 39.6737C11.7905 39.8368 11.1978 40.05 10.3529 40.3009C9.50801 40.5518 8.53703 40.6772 7.43994 40.6772C6.1537 40.6772 5.09444 40.5141 4.26217 40.188C3.4299 39.8619 2.74895 39.3727 2.24454 38.7205C1.74013 38.0682 1.37444 37.2655 1.17268 36.3122C0.970914 35.3589 0.857422 34.2551 0.857422 33.0008V16.2433L4.23695 15.6663V21.4863Z" fill="#1B1C3B"/>
<path d="M21.803 21.0222C23.1649 21.0222 24.3124 21.1978 25.2455 21.549C26.1787 21.9002 26.9353 22.3894 27.5028 23.0291C28.0702 23.6688 28.4738 24.4339 28.726 25.3119C28.9655 26.1899 29.0916 27.1683 29.0916 28.2219V39.9748C28.8016 40.0249 28.3981 40.0877 27.8685 40.1755C27.3514 40.2633 26.7588 40.3385 26.103 40.4138C25.4473 40.489 24.7411 40.5518 23.9719 40.6145C23.2027 40.6772 22.4461 40.7023 21.7021 40.7023C20.6302 40.7023 19.6592 40.5894 18.7513 40.3761C17.856 40.1629 17.0741 39.8117 16.4184 39.3476C15.7627 38.871 15.2583 38.2564 14.8926 37.4787C14.5269 36.701 14.3503 35.7728 14.3503 34.6941C14.3503 33.6154 14.5647 32.7625 14.9809 32.0225C15.4096 31.2699 15.9771 30.6678 16.7084 30.2163C17.4398 29.7522 18.2847 29.426 19.2557 29.2003C20.2267 28.9745 21.2481 28.8742 22.3074 28.8742C22.6478 28.8742 23.0009 28.8867 23.3666 28.9243C23.7323 28.962 24.0728 29.0121 24.4007 29.0748C24.7285 29.1376 25.0186 29.1877 25.2582 29.2379C25.4977 29.2881 25.6743 29.3257 25.7626 29.3508V28.4101C25.7626 27.8582 25.6995 27.3063 25.586 26.7669C25.4599 26.2276 25.2455 25.7384 24.9303 25.3245C24.615 24.898 24.1863 24.5593 23.644 24.3085C23.1018 24.0576 22.3956 23.9322 21.5129 23.9322C20.4032 23.9322 19.4196 24.0074 18.5874 24.1705C17.7551 24.3336 17.1246 24.4966 16.7084 24.6597L16.3049 21.8751C16.7463 21.687 17.4651 21.4988 18.4865 21.3107C19.5079 21.1351 20.605 21.0347 21.7904 21.0347L21.803 21.0222ZM22.093 37.8801C22.8874 37.8801 23.6062 37.8675 24.2241 37.8299C24.842 37.7923 25.359 37.7296 25.7752 37.6292V32.0225C25.5356 31.897 25.1447 31.7967 24.5898 31.7089C24.035 31.6211 23.3792 31.5835 22.61 31.5835C22.1056 31.5835 21.5634 31.6211 20.9959 31.6963C20.4285 31.7716 19.8988 31.9221 19.4322 32.1479C18.9531 32.3737 18.5621 32.6872 18.2469 33.0886C17.9316 33.49 17.7803 34.0168 17.7803 34.6565C17.7803 35.8606 18.1712 36.701 18.9405 37.1651C19.7097 37.6292 20.7689 37.8675 22.1056 37.8675L22.093 37.8801Z" fill="#1B1C3B"/>
<path d="M36.3425 18.0871C35.7372 18.0871 35.2201 17.8864 34.7914 17.485C34.3627 17.0837 34.1609 16.5443 34.1609 15.8795C34.1609 15.2147 34.3753 14.6629 34.7914 14.274C35.2201 13.8726 35.7246 13.672 36.3425 13.672C36.9603 13.672 37.4648 13.8726 37.8935 14.274C38.3222 14.6754 38.524 15.2147 38.524 15.8795C38.524 16.5443 38.3096 17.0962 37.8935 17.485C37.4648 17.8864 36.9477 18.0871 36.3425 18.0871ZM38.0574 40.3009H34.6779V21.4863H38.0574V40.3009Z" fill="#1B1C3B"/>
<path d="M49.5454 40.6646C47.4647 40.6145 45.9767 40.1755 45.1066 39.3225C44.2365 38.4821 43.7952 37.1651 43.7952 35.384V12.8065L47.1747 12.2295V34.8321C47.1747 35.384 47.2251 35.8481 47.326 36.2118C47.4269 36.5756 47.5782 36.8641 47.7926 37.0773C48.007 37.2906 48.297 37.4536 48.6627 37.5665C49.0284 37.6794 49.4698 37.7672 50.012 37.8424L49.5328 40.6646H49.5454Z" fill="#1B1C3B"/>
<path d="M69.2552 40.3009C68.5742 38.57 67.8554 36.5881 67.0862 34.3555C66.317 32.1228 65.6234 29.8023 64.9929 27.3941C64.3624 29.8023 63.6688 32.1228 62.9248 34.3555C62.1808 36.5881 61.4621 38.57 60.7811 40.3009H57.8303C56.7206 37.8174 55.6235 34.9826 54.5517 31.7967C53.4798 28.6107 52.4836 25.1739 51.5378 21.4863H55.1696C55.4092 22.6152 55.6992 23.8444 56.0397 25.1739C56.3802 26.5035 56.7332 27.8331 57.1115 29.1501C57.4899 30.4797 57.8808 31.7591 58.2969 32.9883C58.713 34.2175 59.0913 35.2962 59.457 36.2119C59.8732 35.083 60.2767 33.8788 60.6802 32.612C61.0838 31.3451 61.4621 30.0657 61.8278 28.7738C62.1934 27.4819 62.5339 26.215 62.8618 24.9733C63.1897 23.7315 63.4797 22.565 63.7193 21.4863H66.5187C66.7331 22.5775 66.9979 23.7315 67.3132 24.9733C67.6284 26.215 67.9689 27.4819 68.3346 28.7738C68.7003 30.0657 69.0786 31.3451 69.4821 32.612C69.8857 33.8788 70.2892 35.083 70.7053 36.2119C71.071 35.2962 71.4493 34.2175 71.8529 32.9883C72.2564 31.7591 72.6473 30.4797 73.0382 29.1501C73.4291 27.8205 73.7948 26.5035 74.1353 25.1739C74.4758 23.8444 74.7658 22.6152 75.0054 21.4863H78.4984C77.5527 25.1739 76.5438 28.6107 75.4846 31.7967C74.4127 34.9826 73.3282 37.8174 72.2059 40.3009H69.2552Z" fill="#1B1C3B"/>
<path d="M83.7316 18.0871C83.1263 18.0871 82.6093 17.8864 82.1806 17.485C81.7518 17.0837 81.55 16.5443 81.55 15.8795C81.55 15.2147 81.7644 14.6629 82.1806 14.274C82.6093 13.8726 83.1137 13.672 83.7316 13.672C84.3495 13.672 84.8539 13.8726 85.2827 14.274C85.7114 14.6754 85.9132 15.2147 85.9132 15.8795C85.9132 16.5443 85.6988 17.0962 85.2827 17.485C84.8539 17.8864 84.3369 18.0871 83.7316 18.0871ZM85.4466 40.3009H82.0671V21.4863H85.4466V40.3009Z" fill="#1B1C3B"/>
<path d="M91.2598 22.0382C92.0416 21.85 93.063 21.6368 94.3493 21.4236C95.6355 21.2103 97.1109 21.0974 98.788 21.0974C100.289 21.0974 101.537 21.3107 102.533 21.7246C103.529 22.1511 104.324 22.7406 104.917 23.4932C105.509 24.2583 105.925 25.1614 106.165 26.2276C106.405 27.2937 106.531 28.4602 106.531 29.7396V40.3009H103.151V30.4671C103.151 29.3132 103.076 28.3223 102.912 27.507C102.748 26.6917 102.495 26.0269 102.13 25.5126C101.764 25.0109 101.285 24.6346 100.68 24.4088C100.074 24.183 99.3177 24.0702 98.4224 24.0702C98.0567 24.0702 97.6784 24.0702 97.3 24.1078C96.9091 24.1329 96.5434 24.158 96.1903 24.1956C95.8373 24.2332 95.522 24.2708 95.2446 24.321C94.9672 24.3712 94.7654 24.4088 94.6393 24.4339V40.3134H91.2598V22.0507V22.0382Z" fill="#1B1C3B"/>
<path d="M124.349 12.8065L127.729 12.2295V39.7615C126.947 39.9748 125.963 40.2005 124.753 40.4138C123.542 40.627 122.142 40.7399 120.566 40.7399C119.116 40.7399 117.804 40.5141 116.644 40.05C115.484 39.5859 114.488 38.9462 113.668 38.0933C112.849 37.2529 112.205 36.2244 111.764 34.9952C111.31 33.7785 111.096 32.4113 111.096 30.8936C111.096 29.3759 111.285 28.1216 111.663 26.9174C112.041 25.7133 112.596 24.6722 113.315 23.8067C114.046 22.9413 114.929 22.264 115.988 21.7748C117.048 21.2981 118.246 21.0473 119.608 21.0473C120.705 21.0473 121.663 21.1978 122.495 21.4863C123.328 21.7748 123.958 22.0507 124.374 22.3141V12.8065H124.349ZM124.349 25.4624C123.933 25.1238 123.34 24.7977 122.571 24.4841C121.802 24.1705 120.944 24.0074 120.024 24.0074C119.053 24.0074 118.22 24.183 117.527 24.5342C116.833 24.8855 116.278 25.3621 115.837 25.9767C115.396 26.5913 115.081 27.3188 114.891 28.1717C114.702 29.0121 114.601 29.9152 114.601 30.881C114.601 33.0761 115.144 34.7694 116.241 35.961C117.338 37.1526 118.788 37.7546 120.604 37.7546C121.524 37.7546 122.294 37.717 122.911 37.6292C123.529 37.5414 124.009 37.4536 124.349 37.3533V25.4499V25.4624Z" fill="#1B1C3B"/>
<path d="M141.764 40.7399C140.238 40.7399 138.901 40.5016 137.741 40.0124C136.581 39.5232 135.622 38.8584 134.828 37.9804C134.046 37.115 133.453 36.0864 133.062 34.8948C132.672 33.7032 132.482 32.3862 132.482 30.9312C132.482 29.4762 132.697 28.1592 133.113 26.9551C133.542 25.7509 134.134 24.7098 134.916 23.8318C135.698 22.9538 136.644 22.264 137.766 21.7748C138.888 21.2856 140.149 21.0347 141.537 21.0347C142.381 21.0347 143.226 21.11 144.084 21.248C144.929 21.3985 145.748 21.6243 146.518 21.9378L145.748 24.7977C145.244 24.5593 144.651 24.3586 143.983 24.2207C143.315 24.0702 142.608 24.0074 141.852 24.0074C139.96 24.0074 138.51 24.597 137.501 25.776C136.492 26.9551 135.988 28.686 135.988 30.9438C135.988 31.9597 136.102 32.8879 136.329 33.7283C136.556 34.5687 136.921 35.2962 137.426 35.8983C137.917 36.5003 138.561 36.9644 139.33 37.2906C140.112 37.6167 141.057 37.7797 142.167 37.7797C143.062 37.7797 143.882 37.6919 144.601 37.5289C145.332 37.3658 145.9 37.1777 146.316 36.9895L146.795 39.8117C146.606 39.9371 146.316 40.05 145.963 40.1504C145.597 40.2633 145.181 40.3511 144.727 40.4389C144.26 40.5267 143.781 40.5894 143.252 40.6521C142.735 40.7148 142.23 40.7399 141.738 40.7399H141.764Z" fill="#1B1C3B"/>
<path d="M154.853 37.8801C156.24 37.8801 157.262 37.7045 157.93 37.3407C158.598 36.977 158.926 36.4 158.926 35.6098C158.926 34.8196 158.598 34.1422 157.943 33.6531C157.287 33.1764 156.215 32.6245 154.702 32.0225C153.97 31.734 153.277 31.4329 152.608 31.1319C151.94 30.8309 151.36 30.4797 150.881 30.0657C150.402 29.6518 150.011 29.1626 149.721 28.5857C149.431 28.0087 149.279 27.2937 149.279 26.4533C149.279 24.7851 149.897 23.4681 151.133 22.4897C152.369 21.5114 154.059 21.0222 156.19 21.0222C156.719 21.0222 157.262 21.0473 157.791 21.11C158.321 21.1727 158.825 21.248 159.279 21.3232C159.733 21.3985 160.149 21.4988 160.502 21.5992C160.856 21.6995 161.133 21.7748 161.322 21.85L160.704 24.7475C160.339 24.5593 159.771 24.3586 158.989 24.1454C158.207 23.9447 157.274 23.8318 156.19 23.8318C155.244 23.8318 154.424 24.02 153.718 24.3963C153.012 24.7726 152.659 25.3495 152.659 26.1523C152.659 26.5662 152.735 26.93 152.898 27.2435C153.05 27.5571 153.302 27.8456 153.63 28.0965C153.958 28.3473 154.361 28.5857 154.853 28.7989C155.345 29.0121 155.925 29.2504 156.593 29.4888C157.489 29.8274 158.296 30.1535 158.989 30.4797C159.695 30.8058 160.288 31.1821 160.792 31.6211C161.284 32.0601 161.675 32.5744 161.94 33.189C162.205 33.8036 162.344 34.5562 162.344 35.4467C162.344 37.1777 161.7 38.4947 160.402 39.3852C159.103 40.2758 157.249 40.7274 154.853 40.7274C153.176 40.7274 151.877 40.5894 150.931 40.3134C149.986 40.0375 149.342 39.8243 149.002 39.6863L149.62 36.7888C150.011 36.9393 150.629 37.1526 151.474 37.4411C152.318 37.7296 153.453 37.8801 154.853 37.8801Z" fill="#1B1C3B"/>
<path d="M171.07 37.8801C172.457 37.8801 173.478 37.7045 174.147 37.3407C174.815 36.977 175.143 36.4 175.143 35.6098C175.143 34.8196 174.815 34.1422 174.159 33.6531C173.503 33.1764 172.432 32.6245 170.918 32.0225C170.187 31.734 169.493 31.4329 168.825 31.1319C168.157 30.8309 167.577 30.4797 167.097 30.0657C166.618 29.6518 166.227 29.1626 165.937 28.5857C165.647 28.0087 165.496 27.2937 165.496 26.4533C165.496 24.7851 166.114 23.4681 167.35 22.4897C168.585 21.5114 170.275 21.0222 172.406 21.0222C172.936 21.0222 173.478 21.0473 174.008 21.11C174.537 21.1727 175.042 21.248 175.496 21.3232C175.95 21.3985 176.366 21.4988 176.719 21.5992C177.072 21.6995 177.349 21.7748 177.539 21.85L176.921 24.7475C176.555 24.5593 175.988 24.3586 175.206 24.1454C174.424 23.9447 173.491 23.8318 172.406 23.8318C171.461 23.8318 170.641 24.02 169.935 24.3963C169.229 24.7726 168.875 25.3495 168.875 26.1523C168.875 26.5662 168.951 26.93 169.115 27.2435C169.266 27.5571 169.519 27.8456 169.846 28.0965C170.174 28.3473 170.578 28.5857 171.07 28.7989C171.561 29.0121 172.141 29.2504 172.81 29.4888C173.705 29.8274 174.512 30.1535 175.206 30.4797C175.912 30.8058 176.505 31.1821 177.009 31.6211C177.501 32.0601 177.892 32.5744 178.157 33.189C178.421 33.8036 178.56 34.5562 178.56 35.4467C178.56 37.1777 177.917 38.4947 176.618 39.3852C175.319 40.2758 173.466 40.7274 171.07 40.7274C169.392 40.7274 168.094 40.5894 167.148 40.3134C166.202 40.0375 165.559 39.8243 165.219 39.6863L165.836 36.7888C166.227 36.9393 166.845 37.1526 167.69 37.4411C168.535 37.7296 169.67 37.8801 171.07 37.8801Z" fill="#1B1C3B"/>
<path d="M298.08 45.3432V52.4927C296.856 51.9534 295.646 51.5395 294.448 51.251C293.25 50.9625 291.888 50.812 290.375 50.812C288.862 50.812 287.55 50.95 286.264 51.2134C285.507 51.4517 284.738 51.6649 283.956 51.8781C283.666 51.9785 283.363 52.0788 283.073 52.2043C280.942 53.1324 279.152 54.462 277.676 56.218C276.214 57.9741 275.079 60.0939 274.297 62.6025C273.515 65.1111 273.124 67.9207 273.124 71.0314C273.124 74.1421 273.578 76.8514 274.486 79.3098C275.394 81.7683 276.693 83.863 278.408 85.5814C280.123 87.3123 282.216 88.6293 284.713 89.5575C287.21 90.4857 290.047 90.9498 293.225 90.9498C294.549 90.9498 295.923 90.8871 297.373 90.7617C298.811 90.6362 300.236 90.4857 301.623 90.285C303.023 90.0843 304.347 89.8586 305.62 89.5952C306.894 89.3318 308.016 89.0433 309 88.7548V40.3009V33.4398C306.037 38.2438 302.38 42.22 298.067 45.3307L298.08 45.3432ZM298.08 81.3042C297.537 81.4045 296.856 81.4923 296.024 81.555C295.192 81.6303 294.284 81.6679 293.313 81.6679C290.324 81.6679 288.08 80.6519 286.566 78.6074C285.053 76.5629 284.297 73.8661 284.297 70.5046C284.297 63.5056 286.882 59.9935 292.077 59.9935C293.199 59.9935 294.309 60.144 295.419 60.4325C296.516 60.721 297.411 61.0848 298.092 61.5238V81.2916L298.08 81.3042Z" fill="#1B1C3B"/>
<path fill-rule="evenodd" clip-rule="evenodd" d="M230.287 0C209.291 0 196.177 10.3731 190.931 31.1319C198.8 20.7588 207.992 16.8579 218.484 19.4543C224.474 20.9344 228.761 25.2241 233.49 29.9905C241.208 37.7296 250.136 46.6979 269.656 46.6979C290.652 46.6979 303.767 36.3247 309.013 15.566C301.144 25.9391 291.951 29.84 281.459 27.2436C275.47 25.7635 271.195 21.4612 266.453 16.7074C258.723 8.9683 249.795 0 230.287 0Z" fill="url(#paint0_linear_28_141)"/>
</g>
<defs>
<linearGradient id="paint0_linear_28_141" x1="190.918" y1="23.3552" x2="309" y2="23.3552" gradientUnits="userSpaceOnUse">
<stop stop-color="#AF5AC4"/>
<stop offset="0.505208" stop-color="#898CDA"/>
<stop offset="1" stop-color="#74EEFF"/>
</linearGradient>
<clipPath id="clip0_28_141">
<rect width="309" height="91" fill="white"/>
</clipPath>
</defs>
</svg>
