<svg width="198" height="190" viewBox="0 0 198 190" fill="none" xmlns="http://www.w3.org/2000/svg">
<g clip-path="url(#clip0_197_11359)">
<path d="M166.636 45.0333H165.596V16.509C165.596 12.1305 163.856 7.9314 160.759 4.83537C157.663 1.73933 153.463 2.1535e-09 149.083 2.1535e-09H88.6366C86.4681 -3.50137e-05 84.3209 0.426948 82.3175 1.25657C80.3141 2.08619 78.4937 3.3022 76.9604 4.83518C75.427 6.36815 74.2107 8.18807 73.3808 10.191C72.551 12.194 72.1238 14.3407 72.1238 16.5087V172.995C72.1238 177.374 73.8635 181.573 76.9602 184.669C80.0569 187.765 84.2569 189.504 88.6363 189.504H149.083C153.462 189.504 157.662 187.765 160.759 184.669C163.855 181.573 165.595 177.374 165.595 172.995V65.3373H166.635L166.636 45.0333Z" fill="#3F3D56"/>
<path d="M162.209 15.4033V174.1C162.208 177.42 160.889 180.604 158.542 182.951C156.194 185.299 153.01 186.618 149.69 186.62H88.0026C84.6809 186.62 81.4951 185.301 79.1458 182.954C76.7964 180.606 75.4761 177.421 75.4751 174.1V15.4033C75.4761 12.0824 76.7964 8.89792 79.1456 6.55021C81.4948 4.20251 84.6805 2.88385 88.0021 2.88428H95.4851C95.1176 3.78765 94.9778 4.76743 95.0778 5.73749C95.1778 6.70755 95.5146 7.6382 96.0587 8.44764C96.6027 9.25707 97.3373 9.92051 98.1978 10.3796C99.0584 10.8388 100.019 11.0795 100.994 11.0808H136.163C137.138 11.0795 138.098 10.8388 138.959 10.3796C139.819 9.92051 140.554 9.25707 141.098 8.44764C141.642 7.6382 141.979 6.70755 142.079 5.73749C142.179 4.76743 142.039 3.78765 141.672 2.88428H149.687C153.007 2.88484 156.192 4.20366 158.54 6.55078C160.888 8.8979 162.208 12.0812 162.209 15.4009V15.4033Z" fill="white"/>
<path d="M118.831 79.1103C133.054 79.1103 144.584 67.5825 144.584 53.3623C144.584 39.142 133.054 27.6143 118.831 27.6143C104.607 27.6143 93.077 39.142 93.077 53.3623C93.077 67.5825 104.607 79.1103 118.831 79.1103Z" fill="#AF5AC4"/>
<path d="M146.918 106.815H92.102C91.8328 106.814 91.5748 106.707 91.3845 106.517C91.1942 106.327 91.0872 106.069 91.0869 105.8V92.2055C91.0873 91.9365 91.1943 91.6785 91.3846 91.4883C91.5749 91.2981 91.8329 91.191 92.102 91.1907H146.918C147.187 91.191 147.445 91.2981 147.635 91.4883C147.826 91.6785 147.933 91.9365 147.933 92.2055V105.8C147.933 106.069 147.826 106.327 147.635 106.517C147.445 106.708 147.187 106.815 146.918 106.815V106.815ZM92.102 91.5965C91.9404 91.5966 91.7856 91.6608 91.6714 91.775C91.5572 91.8892 91.493 92.044 91.4928 92.2055V105.8C91.493 105.962 91.5572 106.116 91.6714 106.231C91.7856 106.345 91.9404 106.409 92.102 106.409H146.918C147.079 106.409 147.234 106.345 147.349 106.231C147.463 106.116 147.527 105.962 147.527 105.8V92.2055C147.527 92.044 147.463 91.8892 147.349 91.775C147.234 91.6608 147.079 91.5966 146.918 91.5965H92.102Z" fill="#E6E6E6"/>
<path d="M109.054 96.0864C108.866 96.0864 108.685 96.1613 108.552 96.2945C108.419 96.4277 108.344 96.6085 108.344 96.7969C108.344 96.9853 108.419 97.166 108.552 97.2993C108.685 97.4325 108.866 97.5073 109.054 97.5073H142.553C142.741 97.5146 142.925 97.4467 143.063 97.3186C143.201 97.1905 143.283 97.0128 143.29 96.8245C143.297 96.6362 143.23 96.4527 143.101 96.3144C142.973 96.1761 142.796 96.0944 142.607 96.0872C142.597 96.0868 142.586 96.0866 142.576 96.0867H109.054L109.054 96.0864Z" fill="#E6E6E6"/>
<path d="M109.054 100.348C108.866 100.348 108.685 100.423 108.552 100.556C108.419 100.69 108.344 100.87 108.344 101.059C108.344 101.247 108.419 101.428 108.552 101.561C108.685 101.694 108.866 101.769 109.054 101.769H142.553C142.741 101.777 142.925 101.709 143.063 101.581C143.201 101.453 143.283 101.275 143.29 101.086C143.297 100.898 143.23 100.715 143.101 100.576C142.973 100.438 142.796 100.356 142.607 100.349C142.597 100.349 142.586 100.349 142.576 100.349H109.054L109.054 100.348Z" fill="#E6E6E6"/>
<path d="M146.918 129.474H92.102C91.8328 129.473 91.5748 129.366 91.3845 129.176C91.1942 128.986 91.0872 128.728 91.0869 128.459V114.864C91.0873 114.595 91.1943 114.337 91.3846 114.147C91.5749 113.957 91.8329 113.85 92.102 113.85H146.918C147.187 113.85 147.445 113.957 147.635 114.147C147.826 114.337 147.933 114.595 147.933 114.864V128.459C147.933 128.728 147.825 128.986 147.635 129.176C147.445 129.366 147.187 129.473 146.918 129.474ZM92.102 114.255C91.9404 114.256 91.7856 114.32 91.6714 114.434C91.5572 114.548 91.493 114.703 91.4928 114.864V128.459C91.493 128.621 91.5572 128.775 91.6714 128.89C91.7856 129.004 91.9404 129.068 92.102 129.068H146.918C147.079 129.068 147.234 129.004 147.349 128.89C147.463 128.775 147.527 128.621 147.527 128.459V114.864C147.527 114.703 147.463 114.548 147.349 114.434C147.234 114.32 147.079 114.256 146.918 114.255H92.102Z" fill="#E6E6E6"/>
<path d="M109.054 118.819C108.866 118.819 108.685 118.894 108.552 119.027C108.419 119.16 108.344 119.341 108.344 119.529C108.344 119.718 108.419 119.899 108.552 120.032C108.685 120.165 108.866 120.24 109.054 120.24H142.553C142.739 120.239 142.917 120.165 143.049 120.034C143.181 119.904 143.256 119.727 143.259 119.541C143.262 119.355 143.193 119.176 143.065 119.041C142.937 118.906 142.762 118.826 142.576 118.819H109.054V118.819Z" fill="#E6E6E6"/>
<path d="M109.054 123.082C108.866 123.082 108.685 123.157 108.552 123.29C108.419 123.423 108.344 123.604 108.344 123.792C108.344 123.981 108.419 124.162 108.552 124.295C108.685 124.428 108.866 124.503 109.054 124.503H142.553C142.739 124.502 142.917 124.428 143.049 124.298C143.181 124.167 143.256 123.99 143.259 123.804C143.262 123.618 143.193 123.439 143.065 123.304C142.937 123.169 142.762 123.089 142.576 123.082H109.054V123.082Z" fill="#E6E6E6"/>
<path d="M146.918 152.207H92.102C91.8328 152.206 91.5748 152.099 91.3845 151.909C91.1942 151.719 91.0872 151.461 91.0869 151.192V137.598C91.0873 137.329 91.1943 137.071 91.3846 136.88C91.5749 136.69 91.8329 136.583 92.102 136.583H146.918C147.187 136.583 147.445 136.69 147.635 136.88C147.826 137.071 147.933 137.329 147.933 137.598V151.192C147.933 151.461 147.826 151.719 147.635 151.909C147.445 152.1 147.187 152.207 146.918 152.207V152.207ZM92.102 136.989C91.9404 136.989 91.7856 137.053 91.6714 137.167C91.5572 137.281 91.493 137.436 91.4928 137.598V151.192C91.493 151.354 91.5572 151.508 91.6714 151.623C91.7856 151.737 91.9404 151.801 92.102 151.801H146.918C147.079 151.801 147.234 151.737 147.349 151.623C147.463 151.508 147.527 151.354 147.527 151.192V137.598C147.527 137.436 147.463 137.281 147.349 137.167C147.234 137.053 147.079 136.989 146.918 136.989H92.102Z" fill="#E6E6E6"/>
<path d="M109.054 141.553C108.866 141.553 108.685 141.628 108.552 141.761C108.419 141.894 108.344 142.075 108.344 142.263C108.344 142.452 108.419 142.633 108.552 142.766C108.685 142.899 108.866 142.974 109.054 142.974H142.553C142.646 142.977 142.739 142.963 142.827 142.93C142.914 142.898 142.994 142.849 143.063 142.785C143.131 142.722 143.187 142.645 143.226 142.561C143.265 142.476 143.287 142.384 143.29 142.291C143.294 142.198 143.279 142.105 143.247 142.017C143.214 141.93 143.165 141.849 143.101 141.781C143.038 141.713 142.962 141.657 142.877 141.618C142.792 141.579 142.7 141.557 142.607 141.554C142.597 141.553 142.586 141.553 142.576 141.553H109.054L109.054 141.553Z" fill="#E6E6E6"/>
<path d="M109.054 145.816C108.866 145.816 108.685 145.891 108.552 146.024C108.419 146.157 108.344 146.338 108.344 146.526C108.344 146.715 108.419 146.895 108.552 147.029C108.685 147.162 108.866 147.237 109.054 147.237H142.553C142.646 147.24 142.739 147.225 142.827 147.193C142.914 147.161 142.994 147.111 143.063 147.048C143.131 146.984 143.187 146.908 143.226 146.823C143.265 146.739 143.287 146.647 143.29 146.554C143.294 146.46 143.279 146.367 143.247 146.28C143.214 146.192 143.165 146.112 143.101 146.044C143.038 145.975 142.962 145.92 142.877 145.881C142.792 145.842 142.7 145.82 142.607 145.816C142.597 145.816 142.586 145.816 142.576 145.816H109.054L109.054 145.816Z" fill="#E6E6E6"/>
<path d="M197.483 190H0.516855C0.231223 190 0 189.875 0 189.721C0 189.568 0.231489 189.443 0.516855 189.443H197.483C197.769 189.443 198 189.568 198 189.721C198 189.875 197.769 190 197.483 190Z" fill="#B1B2C1"/>
<path d="M189.141 179.13C188.3 179.426 187.396 179.5 186.518 179.346C185.639 179.191 184.816 178.812 184.126 178.247C182.369 176.773 181.818 174.344 181.37 172.096L180.045 165.444L182.82 167.355C184.816 168.729 186.856 170.147 188.238 172.136C189.62 174.126 190.223 176.843 189.113 178.996" fill="#B1B2C1"/>
<path d="M188.713 187.646C189.062 185.102 189.421 182.525 189.176 179.954C188.959 177.67 188.262 175.44 186.843 173.611C186.09 172.642 185.174 171.812 184.135 171.158C183.865 170.987 183.615 171.416 183.885 171.586C185.682 172.721 187.071 174.398 187.853 176.374C188.718 178.571 188.856 180.966 188.707 183.3C188.617 184.712 188.426 186.114 188.234 187.514C188.219 187.578 188.228 187.644 188.26 187.701C188.293 187.758 188.345 187.8 188.407 187.819C188.471 187.836 188.538 187.828 188.595 187.795C188.652 187.763 188.695 187.709 188.713 187.646Z" fill="#D7D7E2"/>
<path d="M186.199 183.564C185.838 184.112 185.342 184.558 184.758 184.86C184.175 185.161 183.524 185.306 182.867 185.283C181.181 185.203 179.775 184.026 178.51 182.91L174.766 179.605L177.244 179.486C179.025 179.401 180.853 179.322 182.551 179.871C184.249 180.42 185.813 181.742 186.123 183.497" fill="#B1B2C1"/>
<path d="M189.7 189.109C188.02 186.134 186.068 182.828 182.583 181.771C181.614 181.478 180.598 181.374 179.59 181.462C179.272 181.489 179.351 181.979 179.67 181.952C181.36 181.812 183.047 182.258 184.447 183.216C185.794 184.132 186.842 185.407 187.73 186.758C188.274 187.585 188.761 188.449 189.248 189.311C189.402 189.586 189.857 189.387 189.7 189.109Z" fill="#D7D7E2"/>
<path d="M98.9407 103.182C101.295 103.182 103.204 101.273 103.204 98.9192C103.204 96.5651 101.295 94.6567 98.9407 94.6567C96.586 94.6567 94.6772 96.5651 94.6772 98.9192C94.6772 101.273 96.586 103.182 98.9407 103.182Z" fill="#AF5AC4"/>
<path d="M96.8996 98.123C96.8505 98.123 96.8108 98.4411 96.8108 98.8334C96.8108 99.2256 96.8505 99.544 96.8996 99.544H101.092C101.141 99.5504 101.181 99.2376 101.182 98.8454C101.209 98.6012 101.179 98.354 101.095 98.1233H96.8996V98.123Z" fill="#E6E6E6"/>
<path d="M98.9407 125.924C101.295 125.924 103.204 124.016 103.204 121.662C103.204 119.308 101.295 117.399 98.9407 117.399C96.586 117.399 94.6772 119.308 94.6772 121.662C94.6772 124.016 96.586 125.924 98.9407 125.924Z" fill="#AF5AC4"/>
<path d="M96.8996 120.865C96.8505 120.865 96.8108 121.184 96.8108 121.576C96.8108 121.968 96.8505 122.286 96.8996 122.286H101.092C101.141 122.293 101.181 121.98 101.182 121.588C101.209 121.344 101.179 121.096 101.095 120.866H96.8996V120.865Z" fill="#E6E6E6"/>
<path d="M98.9407 148.657C101.295 148.657 103.204 146.749 103.204 144.395C103.204 142.041 101.295 140.132 98.9407 140.132C96.586 140.132 94.6772 142.041 94.6772 144.395C94.6772 146.749 96.586 148.657 98.9407 148.657Z" fill="#AF5AC4"/>
<path d="M96.8996 143.599C96.8505 143.599 96.8108 143.917 96.8108 144.309C96.8108 144.701 96.8505 145.02 96.8996 145.02H101.092C101.141 145.026 101.181 144.713 101.182 144.321C101.209 144.077 101.179 143.83 101.095 143.599H96.8996V143.599Z" fill="#E6E6E6"/>
<path d="M113.267 46.292L111.759 47.8003L124.394 60.4326L125.903 58.9243L113.267 46.292Z" fill="white"/>
<path d="M125.902 47.8002L124.394 46.2919L111.759 58.9242L113.267 60.4326L125.902 47.8002Z" fill="white"/>
<path d="M24.0718 121.623C24.4414 121.493 24.7778 121.282 25.0574 121.008C25.3369 120.733 25.5528 120.4 25.6898 120.033C25.8268 119.665 25.8816 119.273 25.8503 118.882C25.819 118.491 25.7024 118.112 25.5087 117.771L31.7935 110.608L26.8875 109.932L21.6715 116.837C21.1204 117.201 20.7218 117.753 20.5511 118.391C20.3804 119.028 20.4495 119.706 20.7454 120.296C21.0413 120.886 21.5433 121.347 22.1564 121.592C22.7695 121.836 23.451 121.848 24.0718 121.623Z" fill="#9F616A"/>
<path d="M31.6513 185.105L27.2682 185.105L25.1829 168.201L31.6521 168.202L31.6513 185.105Z" fill="#9F616A"/>
<path d="M32.7691 189.353L18.6356 189.353V189.174C18.6357 187.715 19.2153 186.316 20.247 185.285C21.2786 184.253 22.6778 183.674 24.1368 183.674H24.1371L32.7694 183.674L32.7691 189.353Z" fill="#2F2E41"/>
<path d="M54.5963 181.438L50.4102 182.737L43.4052 167.212L49.5834 165.295L54.5963 181.438Z" fill="#9F616A"/>
<path d="M56.9239 185.163L43.426 189.353L43.373 189.182C42.9404 187.789 43.079 186.281 43.7584 184.991C44.4377 183.7 45.6021 182.731 46.9954 182.299L46.9957 182.299L55.2398 179.74L56.9239 185.163Z" fill="#2F2E41"/>
<path d="M28.2947 107.174L21.803 114.607L26.8852 115.064L28.2947 107.174Z" fill="#B1B2C1"/>
<path d="M25.7581 116.755C25.7581 116.755 23.5032 117.882 23.2213 122.955C22.9394 128.027 24.067 141.273 24.067 141.273C24.067 141.273 22.9396 147.191 24.067 152.545C25.1943 157.899 22.9396 177.342 24.3489 177.342C25.7581 177.342 33.0864 178.188 33.3683 177.342C33.6502 176.497 33.9321 163.816 33.9321 163.816C33.9321 163.816 36.187 157.334 33.9321 153.39C33.9321 153.39 41.8052 167.135 46.8975 177.625C48.012 179.921 56.4807 177.343 55.0715 174.807C53.6623 172.27 50.28 160.717 50.28 160.717C50.28 160.717 47.7432 152.263 43.2336 148.599L45.4886 130.564C45.4886 130.564 50.2803 118.447 47.4621 116.756C44.6439 115.065 25.7581 116.755 25.7581 116.755Z" fill="#2F2E41"/>
<path d="M34.2137 70.8213C38.261 70.8213 41.5419 67.541 41.5419 63.4946C41.5419 59.4481 38.261 56.1678 34.2137 56.1678C30.1664 56.1678 26.8854 59.4481 26.8854 63.4946C26.8854 67.541 30.1664 70.8213 34.2137 70.8213Z" fill="#A0616A"/>
<path d="M42.3876 71L33.2773 76.3541C33.2773 76.3541 29.7889 78.3182 28.4858 81.7082C27.0969 85.3212 27.9042 90.4081 28.4858 91.5712C29.6132 93.8257 28.013 99.4616 28.013 99.4616L26.6038 112.424C26.6038 112.424 21.5304 117.215 25.4764 117.778C29.4225 118.342 36.4689 117.497 40.6968 117.778C44.9247 118.06 49.7162 118.624 48.307 115.805C46.8978 112.987 45.2066 111.015 46.8978 105.38C48.2211 100.969 48.1638 84.4797 48.0763 77.5159C48.0642 76.5595 47.8077 75.6222 47.331 74.793C46.8544 73.9638 46.1735 73.2703 45.353 72.7785L42.3876 71Z" fill="#B1B2C1"/>
<path d="M38.3018 80.262L39.1473 97.4517L30.9527 114.043L29.563 113.514L38.0189 98.0151L38.3018 80.262Z" fill="#86879C"/>
<path d="M47.6022 101.115V99.1416L38.02 114.923L47.6022 101.115Z" fill="#86879C"/>
<path d="M29.0125 56.7073L27.802 56.2231C27.802 56.2231 30.3356 53.4348 33.8595 53.6772L32.8681 52.5861C32.8681 52.5861 35.2911 51.6164 37.494 54.162C38.652 55.5002 39.9916 57.0734 40.8277 58.8452H42.1252L41.5838 60.0374L43.4789 61.2295L41.5336 61.0162C41.7179 62.0454 41.6548 63.1036 41.3496 64.1036L41.403 65.0459C41.403 65.0459 39.147 61.5559 39.147 61.0717V62.2841C39.147 62.2841 37.9354 61.193 37.9354 60.4656L37.2745 61.3143L36.9441 59.9811L32.8689 61.3143L33.5293 60.2227L30.9957 60.5864L31.987 59.2532C31.987 59.2532 29.1235 60.829 29.0133 62.1628C28.9032 63.4965 27.4715 65.1934 27.4715 65.1934L26.8107 63.981C26.8107 63.981 25.8196 58.5258 29.0125 56.7073Z" fill="#2F2E41"/>
<path d="M33.7539 122.421C34.0944 122.227 34.3881 121.96 34.6144 121.64C34.8408 121.32 34.9941 120.954 35.0637 120.568C35.1333 120.183 35.1175 119.786 35.0173 119.407C34.9172 119.028 34.7351 118.676 34.484 118.375L39.3973 110.21L34.449 110.415L30.5419 118.137C30.0641 118.592 29.7699 119.207 29.7151 119.865C29.6603 120.522 29.8487 121.177 30.2446 121.705C30.6406 122.233 31.2165 122.598 31.8632 122.73C32.51 122.862 33.1827 122.752 33.7539 122.421Z" fill="#9F616A"/>
<path d="M44.9247 75.0488L47.0386 74.6262C47.0386 74.6262 53.3803 79.2759 51.4073 88.5752C49.4343 97.8745 40.6968 111.965 40.6968 111.965C40.6968 111.965 38.7232 114.501 38.16 115.064C37.5967 115.628 36.4689 115.064 37.0327 115.91C37.5964 116.755 36.187 117.319 36.187 117.319C36.187 117.319 29.986 117.319 30.5498 115.064C31.1136 112.81 40.6968 96.7461 40.6968 96.7461L39.2876 81.8108C39.2876 81.8108 38.1597 74.4852 44.9247 75.0488Z" fill="#B1B2C1"/>
</g>
<defs>
<clipPath id="clip0_197_11359">
<rect width="198" height="190" fill="white"/>
</clipPath>
</defs>
</svg>
