<svg width="22" height="14" viewBox="0 0 22 14" fill="none" xmlns="http://www.w3.org/2000/svg">
<path d="M8.36 0H11.48V13.86H8.36V7.98H3.12V13.86H0V0H3.12V5.3H8.36V0Z" fill="#AF5AC4"/>
<path d="M14.4875 2.88C14.8742 2.72 15.2742 2.54 15.6875 2.34C16.1142 2.12667 16.5275 1.9 16.9275 1.66C17.3275 1.40667 17.7075 1.14667 18.0675 0.88C18.4408 0.6 18.7742 0.306667 19.0675 0H21.1475V13.86H18.1675V3.88C17.7675 4.14667 17.3208 4.39333 16.8275 4.62C16.3342 4.83333 15.8542 5.02 15.3875 5.18L14.4875 2.88Z" fill="#AF5AC4"/>
</svg>
