<?xml version="1.0" encoding="utf-8"?>
<!-- Generator: Adobe Illustrator 24.1.3, SVG Export Plug-In . SVG Version: 6.00 Build 0)  -->
<svg version="1.1" id="Ebene_1" xmlns="http://www.w3.org/2000/svg" xmlns:xlink="http://www.w3.org/1999/xlink" x="0px" y="0px"
	 viewBox="0 0 257.6 67" style="enable-background:new 0 0 257.6 67;" xml:space="preserve">
<style type="text/css">
	.st0{fill:#FFFFFF;}
</style>
<g>
	<path class="st0" d="M110.6,28.4h-4.9l-5.9-10.8c-0.7-1.3-1.2-2.5-1.7-3.8H98v14.6h-5.4V2.7h4.8l6,11.4c0.6,1.4,1.2,2.4,1.7,3.8
		l0,0V2.7h5.5L110.6,28.4z"/>
	<path class="st0" d="M131,7.9h-8.9V13h8v4.8h-8v5.5h9.1v5.1h-14.7V2.7H131V7.9z"/>
	<path class="st0" d="M162.6,2.7l-4.5,25.7h-6.2l-2.2-11.5c-0.3-1.4-0.6-3.4-0.9-4.9l0,0c-0.2,1.5-0.6,3.4-0.9,4.9l-2.1,11.5h-6.2
		l-4.5-25.7h5.6l2,13.4c0.2,1.4,0.4,2.9,0.6,4.4l0.7-4.4l2.4-13.4h5.2l2.2,13.5c0.2,1.4,0.5,3,0.7,4.4c0.2-1.5,0.4-3,0.6-4.4l2-13.5
		L162.6,2.7z"/>
	<path class="st0" d="M183.8,2.7c7,0,10,4.8,10,12.9c0,10.1-5.2,12.8-11.2,12.8h-7.2V2.7H183.8z M181,7.7v15.6h2.2
		c3.1,0,4.6-2.8,4.6-7.8s-1.4-7.9-4.6-7.9L181,7.7z"/>
	<path class="st0" d="M217.4,28.4h-6l-1.2-4.8h-6.4l-1.2,4.8h-5.9l7.2-25.7h6.5L217.4,28.4z M205.4,15.8l-0.8,3.1h4.5l-0.7-3
		c-0.5-2.2-1-5-1.5-7.5C206.5,10.8,205.9,13.6,205.4,15.8L205.4,15.8z"/>
	<path class="st0" d="M235.7,7.9h-5.9v20.5h-5.7V7.9h-5.9V2.7h17.4L235.7,7.9z"/>
	<path class="st0" d="M256.6,28.4h-6l-1.2-4.8H243l-1.2,4.8h-5.9l7.2-25.7h6.5L256.6,28.4z M244.6,15.8l-0.8,3.1h4.5l-0.7-3
		c-0.5-2.2-1-5-1.5-7.5C245.7,10.8,245.2,13.6,244.6,15.8L244.6,15.8z"/>
	<path class="st0" d="M107.8,40.9l-2.2,3.9c-1.2-1-2.8-1.6-4.4-1.7c-1.6,0-2.5,0.6-2.5,2.2s1.2,2.4,3.6,3.8c2.9,1.6,5.6,3.5,5.6,7.7
		c0,4.9-3,8-8.1,8c-3,0-5.9-1.1-8.2-3l2.3-4.2c1.6,1.1,3.5,1.8,5.4,2c1.6,0,2.6-0.7,2.6-2.2s-1.4-2.6-3.9-4
		c-3.1-1.6-5.4-3.9-5.4-7.5c0-5.2,3.4-7.6,8.2-7.6C103.3,38.1,105.8,39.1,107.8,40.9z"/>
	<path class="st0" d="M129,43.8h-8.9V49h8v4.8h-8v5.5h9.1v5.1h-14.7V38.7H129V43.8z"/>
	<path class="st0" d="M144.8,38.7c5.2,0,8.1,2.9,8.1,8.4c0,3.6-1,5.9-3.1,7.4l4.3,10h-6.2l-3.3-8.5c-0.3,0-0.7,0-1,0h-1.6v8.4h-5.7
		V38.7H144.8z M141.9,43.8v7.8h2.3c1.9,0,3-1.1,3-3.9s-1-3.8-2.8-3.8H141.9z"/>
	<path class="st0" d="M176.7,38.7l-6.3,25.7h-6.7l-6.2-25.7h6l3.6,18.9l3.6-18.9H176.7z"/>
	<path class="st0" d="M188.4,64.4h-5.7V38.7h5.7L188.4,64.4z"/>
	<path class="st0" d="M213.4,48h-5.5c-0.1-3-0.8-4.6-2.9-4.6c-2.4,0-3.8,2.3-3.8,8.1c0,5.6,1.6,7.9,4.4,7.9c2-0.1,3.9-0.8,5.5-2
		l2.2,4.2c-2.3,2.1-5.3,3.2-8.5,3.2c-6.5,0-9.6-4.4-9.6-13.3c0-8.2,3-13.3,9.8-13.3C210.2,38.2,213.3,41.2,213.4,48z"/>
	<path class="st0" d="M235.2,43.8h-8.9V49h8v4.8h-8v5.5h9.1v5.1h-14.8V38.7h14.6L235.2,43.8z"/>
	<path class="st0" d="M257.5,40.9l-2.2,3.9c-1.2-1-2.8-1.6-4.4-1.7c-1.6,0-2.5,0.6-2.5,2.2s1.2,2.4,3.6,3.8c2.9,1.6,5.6,3.5,5.6,7.7
		c0,4.9-3,8-8.1,8c-3,0-5.9-1.1-8.2-3l2.3-4.2c1.6,1.1,3.5,1.8,5.4,2c1.6,0,2.6-0.7,2.6-2.2s-1.4-2.6-3.9-4
		c-3.1-1.6-5.4-3.9-5.4-7.5c0-5.2,3.4-7.6,8.2-7.6C253,38.1,255.6,39.1,257.5,40.9z"/>
	<path class="st0" d="M61,0L22,22.9V6.5L11,0L0,6.5v54.1L11,67l39-22.8v16.4L61,67l11-6.5v-54L61,0z M11,52.8l-7.8-4.6l57.8-34
		l7.8,4.6L11,52.8z M69.9,16.9l-7.8-4.6V3.2l7.8,4.6V16.9z M19.9,24.1l-7.8,4.6V3.2l7.8,4.6V24.1z M9.9,3.1v29.4l50-29.3v9.2
		l-57.8,34V7.7L9.9,3.1z M2.2,50.1l7.8,4.6v9.2l-7.8-4.6L2.2,50.1z M52.2,42.9l7.8-4.6v25.5l-7.7-4.6L52.2,42.9z M62.1,63.9V34.5
		l-50,29.3v-9.2l57.8-34v38.6L62.1,63.9z"/>
</g>
</svg>
