<svg width="400" height="366" viewBox="0 0 400 366" fill="none" xmlns="http://www.w3.org/2000/svg">
<g clip-path="url(#clip0_163_1493)">
<path d="M256.271 292.289L260.114 300.902C256.99 300.405 254.084 303.072 254.019 306.496C253.954 309.921 256.741 313.484 259.865 313.971C259.268 316.63 256.691 317.802 254.454 318.877C252.217 319.952 249.807 321.734 249.973 324.567C250.107 326.842 251.989 328.85 253.988 329.658C255.987 330.466 258.084 330.341 260.109 330.206C257.041 333.413 256.742 339.441 259.436 343.766C262.13 348.091 267.511 350.22 271.539 348.555C268.693 352.094 269.311 358.575 272.844 362.227C276.405 365.909 281.566 366.265 286.078 365.877C297.568 364.906 308.516 360.57 317.552 353.411C321.001 350.672 324.223 347.451 326.191 343.249C328.158 339.047 328.738 333.726 326.905 328.944C327.4 334.935 333.399 339.666 338.796 339.931C344.193 340.195 348.905 337.157 352.91 333.693C358.235 329.086 363.165 322.627 362.434 314.659C362.072 310.714 360.348 306.92 358.658 303.245L355.379 296.121C354.056 293.245 352.703 290.32 350.711 287.906C348.719 285.493 345.954 283.624 343.187 283.642C343.82 280.753 344.455 277.757 343.925 274.689C343.395 271.62 341.365 268.442 338.604 267.724C335.091 266.809 332.113 270.049 328.58 269.744C325.18 269.45 322.37 266.04 319.068 264.688C317.709 264.101 316.207 263.922 314.748 264.175C313.289 264.427 311.934 265.099 310.851 266.109C308.758 268.151 307.886 271.601 308.637 274.865C309.295 277.725 311.046 280.247 312.109 283.005C313.172 285.763 313.336 289.309 311.295 290.816C308.832 292.633 305.083 290.16 303.159 287.168C301.235 284.176 300.13 280.553 297.697 278.036C294.825 275.066 290.329 274.37 287.372 276.438C284.415 278.505 283.284 283.135 284.775 287.071C285.994 290.289 288.786 293.545 287.818 296.575C286.794 299.778 282.316 299.372 279.614 297.109C276.913 294.845 275.119 291.436 272.451 289.121C269.741 286.771 266.202 285.741 263.095 286.399C261.519 286.764 260.06 287.521 258.854 288.598C257.648 289.675 256.732 291.039 256.192 292.563" fill="#D7D7E2"/>
<path d="M318.502 268.083L310.527 271.786C309.328 272.378 307.968 272.561 306.656 272.308C305.498 272.034 304.715 271.327 304.51 270.366L302.654 261.704C302.304 260.07 303.658 258.136 305.874 257.108L310.278 255.062C312.494 254.033 314.846 254.246 315.87 255.568L321.297 262.571C321.899 263.348 321.935 264.402 321.398 265.463C320.745 266.629 319.728 267.549 318.502 268.083Z" fill="#52536D"/>
<path d="M71.204 107.984C78.7018 87.4748 90.4025 68.7567 105.557 53.0281C118.414 39.689 138.424 40.2432 138.424 40.2432L138.539 40.1015C143.354 34.1662 149.817 29.7844 157.115 27.5059C164.414 25.2273 172.223 25.1535 179.563 27.2936C181.471 27.8407 182.938 28.0833 183.636 27.8396C196.361 23.3888 195.763 13.3431 206.741 5.25035C225.964 -8.91959 289.723 7.3118 298.714 33.3862C306 54.5189 338.527 64.7617 350.679 80.9265C352.579 83.4541 354.443 86.011 356.272 88.5971C357.129 89.7986 357.977 91.0091 358.815 92.2287C367.425 104.689 375.148 117.739 381.929 131.281C386.376 140.128 390.241 149.256 393.499 158.606C406.172 195.632 401.838 223.218 366.894 216.403C362.758 215.594 358.721 214.87 354.783 214.232C349.081 213.302 343.578 212.537 338.273 211.939C331.13 211.127 324.335 210.595 317.886 210.343C315.718 210.256 313.59 210.198 311.501 210.168C280.62 209.74 257.713 215.549 240.262 224.566C237.304 226.09 234.5 227.703 231.852 229.405C227.807 231.989 223.944 234.848 220.292 237.963C215.238 242.298 210.577 247.07 206.364 252.226L206.132 252.509C185.721 277.461 179.004 305.084 164.806 309.947C104.113 330.741 65.7271 255.362 61.7905 181.625C61.5918 177.909 61.482 174.204 61.4611 170.51C61.4488 168.859 61.4569 167.212 61.4855 165.569C61.5478 161.284 61.7368 157.026 62.0534 152.82C62.1716 151.212 62.3087 149.612 62.4647 148.021C62.6367 146.305 62.8237 144.599 63.0399 142.904C64.5839 130.48 67.2849 118.66 71.204 107.984Z" fill="url(#paint0_linear_163_1493)"/>
<path d="M259.322 148.553C254.475 150.809 254.395 160.91 255.915 164.184L258.669 170.108L276.226 161.956L273.472 156.031C271.949 152.76 264.173 146.306 259.322 148.553Z" fill="#52536D"/>
<path d="M212.142 233.614C211.833 233.614 211.528 233.54 211.254 233.397C210.98 233.254 210.745 233.048 210.568 232.795C210.391 232.542 210.277 232.25 210.237 231.944C210.197 231.638 210.232 231.326 210.338 231.036C210.424 230.799 210.556 230.582 210.726 230.396C210.897 230.211 211.103 230.061 211.332 229.955L302.001 187.854C302.23 187.748 302.477 187.688 302.729 187.677C302.981 187.667 303.232 187.706 303.469 187.792C303.706 187.879 303.923 188.011 304.109 188.181C304.294 188.352 304.444 188.557 304.551 188.785C304.765 189.247 304.787 189.774 304.612 190.252C304.437 190.73 304.08 191.119 303.619 191.333H303.619L212.949 233.434C212.697 233.552 212.421 233.614 212.142 233.614Z" fill="#52536D"/>
<path d="M283.065 165.734L257.148 177.769L297.804 265.221L323.721 253.186L283.065 165.734Z" fill="#F1F2F7"/>
<path d="M185.773 55.6471C180.926 57.9024 180.846 68.0042 182.366 71.2774L185.121 77.202L202.678 69.0497L199.923 63.1251C198.4 59.8533 190.624 53.3994 185.773 55.6471Z" fill="#52536D"/>
<path d="M294.377 278.137L286.402 281.84C285.203 282.431 283.843 282.615 282.531 282.361C281.373 282.088 280.59 281.38 280.385 280.42L278.529 271.757C278.179 270.123 279.533 268.19 281.749 267.161L286.153 265.116C288.369 264.087 290.721 264.3 291.745 265.621L297.172 272.625C297.774 273.401 297.81 274.455 297.273 275.516C296.62 276.682 295.603 277.603 294.377 278.137Z" fill="#52536D"/>
<path d="M269.857 290.295L261.881 293.998C260.683 294.59 259.323 294.773 258.01 294.52C256.852 294.246 256.07 293.538 255.864 292.578L254.009 283.915C253.658 282.281 255.012 280.348 257.228 279.319L261.633 277.274C263.849 276.245 266.2 276.458 267.224 277.779L272.651 284.783C273.253 285.56 273.29 286.613 272.752 287.674C272.099 288.84 271.082 289.761 269.857 290.295Z" fill="#52536D"/>
<path d="M216.433 87.7038L190.515 99.7382L272.696 276.512L298.613 264.478L216.433 87.7038Z" fill="#F1F2F7"/>
<path d="M243.324 178.83L240.416 172.435L242.09 171.663L244.99 178.038L286.972 271.069L285.3 271.845" fill="#3F3D56"/>
<path d="M276.125 173.515L273.217 167.119L274.891 166.347L277.79 172.722L319.773 265.753L318.101 266.529" fill="#3F3D56"/>
<path d="M228.665 101.851L193.548 118.157C191.313 114.68 184.573 96.8666 186.086 91.5813L184.95 86.5411L209.198 75.2821L212.443 79.2722C217.261 80.7496 226.64 97.4816 228.665 101.851Z" fill="#F1F2F7"/>
<path d="M210.211 75.4978L185.189 87.1164C184.265 87.5452 183.282 87.3876 182.992 86.7642C182.951 86.6744 182.925 86.578 182.916 86.4795L181.621 72.6724C181.565 72.0812 182.071 71.4112 182.845 71.0522L199.439 63.347C200.212 62.988 201.051 63.0335 201.467 63.4572L211.19 73.3507C211.687 73.8568 211.417 74.7229 210.587 75.2854C210.468 75.3661 210.342 75.4371 210.211 75.4978Z" fill="#F1F2F7"/>
<path d="M229.837 183.671C229.566 183.671 229.296 183.64 229.033 183.576C228.662 183.499 228.313 183.338 228.014 183.106C227.714 182.874 227.472 182.576 227.306 182.236L212.008 149.329C211.375 147.967 212.225 146.225 213.903 145.446L236.303 135.044C237.981 134.265 239.861 134.74 240.494 136.102L255.792 169.009C255.945 169.355 256.017 169.732 256.001 170.111C255.986 170.489 255.884 170.859 255.703 171.192C255.311 171.946 254.674 172.545 253.897 172.892L231.497 183.293C230.978 183.538 230.411 183.667 229.837 183.671Z" fill="#52536D"/>
<path d="M232.9 188.652L206.982 200.686L247.638 288.138L273.555 276.103L232.9 188.652Z" fill="#F1F2F7"/>
<path d="M200.97 76.9402L193.37 80.4694C191.903 81.1504 189.924 80.0156 188.96 77.94C187.995 75.8645 188.403 73.6213 189.87 72.9403L197.47 69.4111C198.937 68.7301 200.915 69.8649 201.88 71.9405C202.845 74.016 202.437 76.2592 200.97 76.9402Z" fill="#52536D"/>
<path d="M209.663 171.236C204.815 173.491 204.736 183.593 206.256 186.866L209.01 192.791L226.567 184.638L223.812 178.714C222.29 175.442 214.513 168.988 209.663 171.236Z" fill="#52536D"/>
<path d="M129.147 151.072C127.435 152.211 125.683 149.498 127.428 148.409C129.139 147.269 130.891 149.982 129.147 151.072Z" fill="#E6E6E6"/>
<path d="M307.335 112.089C305.623 113.229 303.871 110.515 305.616 109.426C307.327 108.286 309.079 110.999 307.335 112.089Z" fill="#E6E6E6"/>
<path d="M185.883 143.098C184.171 144.238 182.419 141.525 184.164 140.435C185.876 139.296 187.628 142.009 185.883 143.098Z" fill="#E6E6E6"/>
<path d="M129.147 249.415C127.435 250.555 125.683 247.842 127.428 246.752C129.139 245.613 130.891 248.326 129.147 249.415Z" fill="#E6E6E6"/>
<path d="M216.468 27.4778C214.756 28.6177 213.004 25.9046 214.748 24.8153C216.46 23.6755 218.212 26.3886 216.468 27.4778Z" fill="#E6E6E6"/>
<path d="M132.249 79.7504C130.537 80.8903 128.785 78.1772 130.53 77.0879C132.242 75.9481 133.994 78.6612 132.249 79.7504Z" fill="#E6E6E6"/>
<path d="M253.381 64.7649L252.292 64.5261L252.53 63.4372L251.804 63.2782L251.565 64.3671L250.476 64.1287L250.317 64.8544L251.406 65.0931L251.168 66.1815L251.894 66.3406L252.132 65.2517L253.222 65.4905L253.381 64.7649Z" fill="#E6E6E6"/>
<path d="M76.0364 155.479L74.9473 155.24L75.1858 154.152L74.4597 153.993L74.2208 155.081L73.1313 154.843L72.9722 155.569L74.0617 155.807L73.8232 156.896L74.5493 157.055L74.7882 155.966L75.8773 156.205L76.0364 155.479Z" fill="#E6E6E6"/>
<path d="M299.386 201.753C298.48 202.173 297.444 202.216 296.506 201.873C295.568 201.53 294.804 200.83 294.382 199.925L289.9 190.283C289.48 189.377 289.437 188.343 289.781 187.406C290.124 186.469 290.825 185.706 291.731 185.286C292.636 184.865 293.672 184.821 294.61 185.163C295.548 185.505 296.312 186.205 296.733 187.11L301.216 196.752C301.636 197.657 301.679 198.693 301.336 199.63C300.993 200.568 300.292 201.331 299.386 201.753Z" fill="#52536D"/>
<path d="M223.147 237.192C222.24 237.612 221.204 237.655 220.266 237.312C219.328 236.969 218.564 236.269 218.142 235.364L213.66 225.722C213.24 224.817 213.197 223.782 213.541 222.845C213.884 221.908 214.586 221.145 215.491 220.725C216.397 220.304 217.432 220.26 218.37 220.602C219.308 220.944 220.072 221.644 220.494 222.549L224.976 232.191C225.396 233.097 225.439 234.132 225.096 235.069C224.753 236.007 224.052 236.77 223.147 237.192Z" fill="#52536D"/>
<path d="M292.481 180.687L262.426 194.642C260.512 191.667 254.744 176.421 256.039 171.898L256.675 166.837L274.621 158.038L278.597 161.363C284.2 159.47 292.436 173.345 292.481 180.687Z" fill="#F1F2F7"/>
<path d="M278.528 179.719L270.927 183.248C269.461 183.929 267.229 182.25 265.953 179.506C264.677 176.762 264.833 173.975 266.299 173.294L273.9 169.765C275.367 169.084 277.598 170.762 278.874 173.507C280.15 176.251 279.994 179.038 278.528 179.719Z" fill="#3F3D56"/>
<path d="M214.07 197.879L211.162 191.483L212.836 190.712L215.735 197.087L257.718 290.117L256.045 290.894" fill="#3F3D56"/>
<path d="M242.822 203.369L212.767 217.325C208.333 215.037 201.556 200.066 206.38 194.58L207.016 189.52L224.961 180.721L228.938 184.045C233.061 185.31 241.088 199.63 242.822 203.369Z" fill="#F1F2F7"/>
<path d="M228.249 201.071L220.649 204.6C219.182 205.281 217.09 203.901 215.984 201.523C214.879 199.146 215.173 196.657 216.64 195.976L224.24 192.447C225.707 191.766 227.8 193.146 228.905 195.524C230.01 197.901 229.716 200.39 228.249 201.071Z" fill="#3F3D56"/>
<path d="M75.9256 136.372C101.14 136.372 121.581 115.943 121.581 90.7439C121.581 65.5443 101.14 45.1161 75.9256 45.1161C50.711 45.1161 30.2705 65.5443 30.2705 90.7439C30.2705 115.943 50.711 136.372 75.9256 136.372Z" fill="#E9AAF8"/>
<path opacity="0.3" d="M263.118 138.267L290.862 57.285L260.397 137.298C260.246 137.488 260.143 137.711 260.096 137.949C260.049 138.186 260.059 138.432 260.126 138.665C260.193 138.898 260.314 139.112 260.48 139.288C260.646 139.465 260.852 139.6 261.08 139.681C261.309 139.763 261.553 139.788 261.794 139.756C262.034 139.724 262.263 139.636 262.462 139.497C262.662 139.359 262.825 139.176 262.939 138.962C263.053 138.748 263.114 138.51 263.118 138.267H263.118Z" fill="#E9AAF8"/>
<path d="M333.84 89.9966C328.409 91.8005 322.388 93.5726 315.777 95.3128C281.582 104.31 235.748 111.329 186.717 115.076C137.686 118.823 91.3168 118.85 56.1508 115.153C39.0203 113.352 25.4711 110.761 15.8796 107.453C5.72495 103.951 0.389153 99.7312 0.0202418 94.9107C-0.698157 85.5195 17.8446 77.2538 33.5266 71.9736L33.9513 73.233C12.4158 80.4841 0.836492 88.1468 1.34632 94.8094C1.99538 103.295 22.0216 110.228 56.2899 113.831C91.3786 117.52 137.663 117.492 186.616 113.751C235.569 110.01 281.319 103.005 315.439 94.0275C348.76 85.2605 367.499 75.3648 366.85 66.8788C366.311 59.8332 352.414 53.806 327.72 49.9068L327.928 48.5942C345.871 51.4275 367.418 56.8818 368.176 66.7775C368.544 71.598 363.913 76.5796 354.409 81.5839C348.991 84.4364 342.108 87.2507 333.84 89.9966Z" fill="#52536D"/>
<path d="M347.256 170.922C349.876 170.922 352 168.799 352 166.181C352 163.563 349.876 161.44 347.256 161.44C344.636 161.44 342.512 163.563 342.512 166.181C342.512 168.799 344.636 170.922 347.256 170.922Z" fill="#E9AAF8"/>
<path d="M377.397 299.389C380.017 299.389 382.141 297.266 382.141 294.648C382.141 292.029 380.017 289.907 377.397 289.907C374.777 289.907 372.653 292.029 372.653 294.648C372.653 297.266 374.777 299.389 377.397 299.389Z" fill="#D7D7E2"/>
<path d="M215.61 328.255C220.718 328.255 224.859 324.117 224.859 319.012C224.859 313.907 220.718 309.769 215.61 309.769C210.502 309.769 206.361 313.907 206.361 319.012C206.361 324.117 210.502 328.255 215.61 328.255Z" fill="#D7D7E2"/>
<path d="M145.133 205.918C147.752 205.918 149.876 203.795 149.876 201.177C149.876 198.559 147.752 196.436 145.133 196.436C142.513 196.436 140.389 198.559 140.389 201.177C140.389 203.795 142.513 205.918 145.133 205.918Z" fill="#52536D"/>
<path d="M304.615 212.089L325.083 217.384L337.636 242.026L316.413 242.858L304.615 212.089Z" fill="#F1F2F7"/>
<path d="M257.373 176.564L268.638 187.828L297.249 249.649L291.981 254.197L257.373 176.564Z" fill="#D7D7E2"/>
<path d="M232.879 186.775L233.763 202.676L260.768 265.214L267.672 264.326L232.879 186.775Z" fill="#D7D7E2"/>
<path d="M232.142 251.014L221.119 269.044L229.245 295.477L245.075 281.325L232.142 251.014Z" fill="#F1F2F7"/>
<path d="M329.517 262.093C323.793 262.093 317.52 261.877 310.698 261.444C275.409 259.205 229.698 251.418 181.987 239.52C134.277 227.622 90.265 213.032 58.0603 198.44C42.3724 191.331 30.3321 184.602 22.2741 178.44C13.7428 171.916 10.011 166.229 11.1821 161.539C13.464 152.4 33.6688 150.401 50.2168 150.333L50.2224 151.662C27.4977 151.755 14.0912 155.377 12.4725 161.86C10.4106 170.118 27.2269 183.009 58.6094 197.229C90.7433 211.789 134.674 226.351 182.31 238.231C229.945 250.11 275.571 257.883 310.782 260.118C345.169 262.301 366.075 258.817 368.137 250.559C369.848 243.703 358.563 233.604 336.36 222.12L336.971 220.94C353.104 229.284 371.831 241.252 369.427 250.881C368.256 255.572 362.288 258.839 351.69 260.593C345.649 261.592 338.228 262.093 329.517 262.093Z" fill="#52536D"/>
</g>
<defs>
<linearGradient id="paint0_linear_163_1493" x1="61.4556" y1="0" x2="400" y2="0" gradientUnits="userSpaceOnUse">
<stop stop-color="#AF5AC4"/>
<stop offset="0.520833" stop-color="#898CDA"/>
<stop offset="1" stop-color="#74EEFF"/>
</linearGradient>
<clipPath id="clip0_163_1493">
<rect width="400" height="366" fill="white"/>
</clipPath>
</defs>
</svg>
