<svg width="32" height="32" viewBox="0 0 32 32" fill="none" xmlns="http://www.w3.org/2000/svg">
<path fill-rule="evenodd" clip-rule="evenodd" d="M24.6622 21L23.4846 21C23.8826 20.4056 24.2114 19.7614 24.4598 19.079L24.9296 19.2501L25.3995 19.4211C25.1991 19.9716 24.9517 20.4995 24.6622 21ZM25 16L26 16C26 16.5926 25.9485 17.1731 25.8496 17.7374L25.3571 17.6511L24.8646 17.5648C24.9535 17.0573 25 16.5345 25 16ZM8.51542 21C8.11744 20.4056 7.7886 19.7614 7.54019 19.0791L7.07035 19.2501L6.60052 19.4211C6.80093 19.9716 7.04831 20.4995 7.33782 21L8.51542 21ZM7.13539 17.5648C7.04648 17.0573 7 16.5345 7 16L6 16C6 16.5926 6.05154 17.1731 6.15039 17.7374L6.64289 17.6511L7.13539 17.5648Z" fill="#AF5AC4"/>
<path fill-rule="evenodd" clip-rule="evenodd" d="M8.52782 21C10.1423 23.412 12.8919 25 16.0123 25C19.1327 25 21.8822 23.412 23.4967 21L24.6745 21C22.9454 23.989 19.7137 26 16.0123 26C12.3109 26 9.07915 23.989 7.3501 21L8.52782 21Z" fill="#AF5AC4"/>
<path fill-rule="evenodd" clip-rule="evenodd" d="M6.63284 14.4073L6.13981 14.3241C6.04787 14.869 6 15.4289 6 16L7 16C7 15.4849 7.04317 14.9807 7.12587 14.4905L6.63284 14.4073ZM25 16L26 16C26 15.4289 25.9521 14.869 25.8602 14.3241L25.3672 14.4073L24.8741 14.4905C24.9568 14.9807 25 15.4849 25 16Z" fill="#AF5AC4"/>
<path fill-rule="evenodd" clip-rule="evenodd" d="M16.8944 6.53571L16.9375 6.03756C16.6518 6.01288 16.3627 6.0002 16.0706 6.00005L16.0598 6.00005C15.7678 6.0002 15.4787 6.01288 15.193 6.03756L15.236 6.53571L15.2791 7.03385C15.5379 7.01148 15.8001 7.00005 16.0652 7.00005C16.3303 7.00005 16.5925 7.01148 16.8514 7.03385L16.8944 6.53571ZM12.0496 7.38784L11.838 6.93483C11.3081 7.18236 10.8035 7.47499 10.329 7.80778L10.6162 8.2171L10.9033 8.62643C11.3304 8.32683 11.7845 8.06351 12.2612 7.84085L12.0496 7.38784ZM8.28228 10.551L7.87295 10.2639C7.54016 10.7383 7.24753 11.2429 7 11.7728L7.45302 11.9844L7.90603 12.196C8.12869 11.7194 8.392 11.2653 8.69161 10.8382L8.28228 10.551ZM24.6774 11.9844L25.1304 11.7728C24.8829 11.2429 24.5903 10.7383 24.2575 10.2639L23.8482 10.551L23.4388 10.8382C23.7384 11.2652 24.0018 11.7194 24.2244 12.196L24.6774 11.9844ZM21.5143 8.2171L21.8014 7.80777C21.327 7.47498 20.8224 7.18236 20.2924 6.93482L20.0808 7.38784L19.8692 7.84085C20.3459 8.06351 20.8 8.32683 21.2271 8.62643L21.5143 8.2171Z" fill="#AF5AC4"/>
<path d="M19 17L16 20L13 17" stroke="#AF5AC4"/>
<path d="M16 12L16 20" stroke="#AF5AC4"/>
</svg>
