<svg width="32" height="32" viewBox="0 0 32 32" fill="none" xmlns="http://www.w3.org/2000/svg">
<path fill-rule="evenodd" clip-rule="evenodd" d="M21 24.6622V23.4846C20.4056 23.8826 19.7614 24.2114 19.079 24.4598L19.2501 24.9296L19.4211 25.3995C19.9716 25.1991 20.4995 24.9517 21 24.6622ZM16 25L16 26C16.5926 26 17.1731 25.9485 17.7374 25.8496L17.6511 25.3571L17.5648 24.8646C17.0573 24.9535 16.5345 25 16 25ZM21 8.51542C20.4056 8.11744 19.7614 7.7886 19.0791 7.54019L19.2501 7.07035L19.4211 6.60052C19.9716 6.80093 20.4995 7.04831 21 7.33782V8.51542ZM17.5648 7.13539C17.0573 7.04648 16.5345 7 16 7L16 6C16.5926 6 17.1731 6.05154 17.7374 6.15039L17.6511 6.64289L17.5648 7.13539Z" fill="#AF5AC4"/>
<path fill-rule="evenodd" clip-rule="evenodd" d="M21 8.52775C23.412 10.1423 25 12.8918 25 16.0122C25 19.1326 23.412 21.8821 21 23.4967V24.6744C23.989 22.9453 26 19.7136 26 16.0122C26 12.3108 23.989 9.07908 21 7.35003V8.52775Z" fill="#AF5AC4"/>
<path fill-rule="evenodd" clip-rule="evenodd" d="M14.4073 6.63284L14.3241 6.13981C14.869 6.04787 15.4289 6 16 6V7C15.4849 7 14.9807 7.04317 14.4905 7.12587L14.4073 6.63284ZM16 25L16 26C15.4289 26 14.869 25.9521 14.3241 25.8602L14.4073 25.3672L14.4905 24.8741C14.9807 24.9568 15.4849 25 16 25Z" fill="#AF5AC4"/>
<path fill-rule="evenodd" clip-rule="evenodd" d="M6.53565 16.8944L6.0375 16.9375C6.01282 16.6518 6.00014 16.3627 5.99999 16.0706V16.0598C6.00014 15.7678 6.01282 15.4787 6.0375 15.193L6.53565 15.236L7.03379 15.2791C7.01142 15.5379 6.99999 15.8001 6.99999 16.0652C6.99999 16.3303 7.01142 16.5925 7.03379 16.8514L6.53565 16.8944ZM7.38778 12.0496L6.93476 11.838C7.1823 11.3081 7.47493 10.8035 7.80771 10.329L8.21704 10.6162L8.62637 10.9033C8.32677 11.3304 8.06345 11.7845 7.84079 12.2612L7.38778 12.0496ZM10.551 8.28228L10.2638 7.87295C10.7382 7.54016 11.2428 7.24753 11.7728 7L11.9844 7.45302L12.196 7.90603C11.7193 8.12869 11.2652 8.392 10.8381 8.69161L10.551 8.28228ZM11.9844 24.6774L11.7728 25.1304C11.2428 24.8829 10.7382 24.5903 10.2638 24.2575L10.551 23.8482L10.8381 23.4388C11.2652 23.7384 11.7193 24.0018 12.196 24.2244L11.9844 24.6774ZM8.21704 21.5143L7.80771 21.8014C7.47492 21.327 7.18229 20.8224 6.93476 20.2924L7.38778 20.0808L7.84079 19.8692C8.06345 20.3459 8.32677 20.8 8.62637 21.2271L8.21704 21.5143Z" fill="#AF5AC4"/>
<path d="M17 19L20 16L17 13" stroke="#AF5AC4"/>
<path d="M12 16L20 16" stroke="#AF5AC4"/>
</svg>
