<svg width="32" height="32" viewBox="0 0 32 32" fill="none" xmlns="http://www.w3.org/2000/svg">
<path fill-rule="evenodd" clip-rule="evenodd" d="M11 24.6622V23.4846C11.5944 23.8826 12.2386 24.2114 12.921 24.4598L12.7499 24.9296L12.5789 25.3995C12.0284 25.1991 11.5005 24.9517 11 24.6622ZM16 25L16 26C15.4074 26 14.8269 25.9485 14.2626 25.8496L14.3489 25.3571L14.4352 24.8646C14.9427 24.9535 15.4655 25 16 25ZM11 8.51542C11.5944 8.11744 12.2386 7.7886 12.9209 7.54019L12.7499 7.07035L12.5789 6.60052C12.0284 6.80093 11.5005 7.04831 11 7.33782V8.51542ZM14.4352 7.13539C14.9427 7.04648 15.4655 7 16 7L16 6C15.4074 6 14.8269 6.05154 14.2626 6.15039L14.3489 6.64289L14.4352 7.13539Z" fill="#AF5AC4"/>
<path fill-rule="evenodd" clip-rule="evenodd" d="M11 8.52775C8.58803 10.1423 7 12.8918 7 16.0122C7 19.1326 8.58803 21.8821 11 23.4967V24.6744C8.01099 22.9453 6 19.7136 6 16.0122C6 12.3108 8.01099 9.07908 11 7.35003V8.52775Z" fill="#AF5AC4"/>
<path fill-rule="evenodd" clip-rule="evenodd" d="M17.5927 6.63284L17.6759 6.13981C17.131 6.04787 16.5711 6 16 6V7C16.5151 7 17.0193 7.04317 17.5095 7.12587L17.5927 6.63284ZM16 25L16 26C16.5711 26 17.131 25.9521 17.6759 25.8602L17.5927 25.3672L17.5095 24.8741C17.0193 24.9568 16.5151 25 16 25Z" fill="#AF5AC4"/>
<path fill-rule="evenodd" clip-rule="evenodd" d="M25.4644 16.8944L25.9625 16.9375C25.9872 16.6518 25.9999 16.3627 26 16.0706V16.0598C25.9999 15.7678 25.9872 15.4787 25.9625 15.193L25.4644 15.236L24.9662 15.2791C24.9886 15.5379 25 15.8001 25 16.0652C25 16.3303 24.9886 16.5925 24.9662 16.8514L25.4644 16.8944ZM24.6122 12.0496L25.0652 11.838C24.8177 11.3081 24.5251 10.8035 24.1923 10.329L23.783 10.6162L23.3736 10.9033C23.6732 11.3304 23.9366 11.7845 24.1592 12.2612L24.6122 12.0496ZM21.449 8.28228L21.7362 7.87295C21.2618 7.54016 20.7572 7.24753 20.2272 7L20.0156 7.45302L19.804 7.90603C20.2807 8.12869 20.7348 8.392 21.1619 8.69161L21.449 8.28228ZM20.0156 24.6774L20.2272 25.1304C20.7572 24.8829 21.2618 24.5903 21.7362 24.2575L21.449 23.8482L21.1619 23.4388C20.7348 23.7384 20.2807 24.0018 19.804 24.2244L20.0156 24.6774ZM23.783 21.5143L24.1923 21.8014C24.5251 21.327 24.8177 20.8224 25.0652 20.2924L24.6122 20.0808L24.1592 19.8692C23.9366 20.3459 23.6732 20.8 23.3736 21.2271L23.783 21.5143Z" fill="#AF5AC4"/>
</svg>
