<svg width="32" height="32" viewBox="0 0 32 32" fill="none" xmlns="http://www.w3.org/2000/svg">
<path fill-rule="evenodd" clip-rule="evenodd" d="M7.33783 11L8.51542 11C8.11744 11.5944 7.78861 12.2386 7.54019 12.921L7.07036 12.7499L6.60052 12.5789C6.80093 12.0284 7.04831 11.5005 7.33783 11ZM7 16L6 16C6 15.4074 6.05154 14.8269 6.15039 14.2626L6.64289 14.3489L7.13539 14.4352C7.04648 14.9427 7 15.4655 7 16ZM23.4846 11C23.8826 11.5944 24.2114 12.2386 24.4598 12.9209L24.9296 12.7499L25.3995 12.5789C25.1991 12.0284 24.9517 11.5005 24.6622 11L23.4846 11ZM24.8646 14.4352C24.9535 14.9427 25 15.4655 25 16L26 16C26 15.4074 25.9485 14.8269 25.8496 14.2626L25.3571 14.3489L24.8646 14.4352Z" fill="#AF5AC4"/>
<path fill-rule="evenodd" clip-rule="evenodd" d="M23.4722 11C21.8577 8.58803 19.1081 7 15.9877 7C12.8673 7 10.1178 8.58803 8.50327 11L7.32555 11C9.05459 8.01099 12.2863 6 15.9877 6C19.6891 6 22.9209 8.01099 24.6499 11L23.4722 11Z" fill="#AF5AC4"/>
<path fill-rule="evenodd" clip-rule="evenodd" d="M25.3672 17.5927L25.8602 17.6759C25.9521 17.131 26 16.5711 26 16L25 16C25 16.5151 24.9568 17.0193 24.8741 17.5095L25.3672 17.5927ZM7 16L6 16C6 16.5711 6.04787 17.131 6.13982 17.6759L6.63285 17.5927L7.12588 17.5095C7.04317 17.0193 7 16.5151 7 16Z" fill="#AF5AC4"/>
<path fill-rule="evenodd" clip-rule="evenodd" d="M15.1056 25.4643L15.0625 25.9624C15.3482 25.9871 15.6373 25.9998 15.9294 25.9999L15.9402 25.9999C16.2322 25.9998 16.5213 25.9871 16.807 25.9624L16.764 25.4643L16.7209 24.9661C16.4621 24.9885 16.1999 25 15.9348 25C15.6697 25 15.4075 24.9885 15.1486 24.9661L15.1056 25.4643ZM19.9504 24.6122L20.162 25.0652C20.6919 24.8176 21.1965 24.525 21.671 24.1922L21.3838 23.7829L21.0967 23.3736C20.6696 23.6732 20.2155 23.9365 19.7388 24.1591L19.9504 24.6122ZM23.7177 21.449L24.1271 21.7361C24.4598 21.2617 24.7525 20.7571 25 20.2272L24.547 20.0156L24.094 19.804C23.8713 20.2806 23.608 20.7347 23.3084 21.1618L23.7177 21.449ZM7.32257 20.0156L6.86955 20.2272C7.11708 20.7571 7.40971 21.2617 7.7425 21.7361L8.15183 21.449L8.56116 21.1618C8.26155 20.7348 7.99824 20.2806 7.77558 19.804L7.32257 20.0156ZM10.4857 23.7829L10.1986 24.1922C10.673 24.525 11.1776 24.8176 11.7076 25.0652L11.9192 24.6122L12.1308 24.1591C11.6541 23.9365 11.2 23.6732 10.7729 23.3736L10.4857 23.7829Z" fill="#AF5AC4"/>
<path d="M13 15L16 12L19 15" stroke="#AF5AC4"/>
<path d="M16 20L16 12" stroke="#AF5AC4"/>
</svg>
