<svg width="32" height="32" viewBox="0 0 32 32" fill="none" xmlns="http://www.w3.org/2000/svg">
<path d="M11.2942 24.5L6.84976 16.5H21.7058L26.1502 24.5H11.2942Z" stroke="#AF5AC4"/>
<path fill-rule="evenodd" clip-rule="evenodd" d="M20 11V12C17.4518 12 15.0748 12.7332 13.0685 14.0001H11.3387C13.7217 12.1212 16.7299 11 20 11ZM6.64852 20.7759C6.22723 22.1088 6 23.5278 6 25H7C7 23.9861 7.11608 22.9992 7.33568 22.0521L6.64852 20.7759Z" fill="#AF5AC4"/>
<path fill-rule="evenodd" clip-rule="evenodd" d="M19.2929 11.3536L16.6464 8.70711L17.3535 8L20.3535 11L20.7071 11.3536L20.3535 11.7071L17.3535 14.7071L16.6464 14L19.2929 11.3536Z" fill="#AF5AC4"/>
</svg>
