<svg width="32" height="32" viewBox="0 0 32 32" fill="none" xmlns="http://www.w3.org/2000/svg">
<path d="M11.2942 8.5L6.84976 16.5H21.7058L26.1502 8.5H11.2942Z" stroke="#AF5AC4"/>
<path fill-rule="evenodd" clip-rule="evenodd" d="M20 22V21C17.4518 21 15.0748 20.2668 13.0685 18.9999H11.3387C13.7217 20.8788 16.7299 22 20 22ZM6.64852 12.2241C6.22723 10.8912 6 9.47216 6 8H7C7 9.01395 7.11608 10.0008 7.33568 10.9479L6.64852 12.2241Z" fill="#AF5AC4"/>
<path fill-rule="evenodd" clip-rule="evenodd" d="M19.2929 21.6464L16.6464 24.2929L17.3535 25L20.3535 22L20.7071 21.6464L20.3535 21.2929L17.3535 18.2929L16.6464 19L19.2929 21.6464Z" fill="#AF5AC4"/>
</svg>
