<svg width="32" height="32" viewBox="0 0 32 32" fill="none" xmlns="http://www.w3.org/2000/svg">
<circle cx="16.0655" cy="16.0654" r="4.5" transform="rotate(-22.5 16.0655 16.0654)" stroke="#AF5AC4"/>
<path fill-rule="evenodd" clip-rule="evenodd" d="M25.8754 14.1146C25.7493 13.4837 25.56 12.8557 25.3044 12.2387C25.0489 11.6217 24.7387 11.0438 24.3817 10.5085L23.5497 11.0632C23.8707 11.5446 24.1501 12.0649 24.3806 12.6214C24.6111 13.1779 24.7814 13.7433 24.8949 14.3107L25.8754 14.1146ZM25.8746 18.0165L24.8939 17.8205C24.6624 18.9792 24.2047 20.084 23.5492 21.0671L24.3811 21.6219C25.1092 20.5301 25.6174 19.3034 25.8746 18.0165ZM21.6227 24.3816L21.068 23.5496C20.5865 23.8705 20.0663 24.1499 19.5098 24.3805C18.9533 24.611 18.3879 24.7813 17.8205 24.8948L18.0166 25.8753C18.6475 25.7491 19.2755 25.5599 19.8925 25.3043C20.5095 25.0488 21.0873 24.7385 21.6227 24.3816ZM14.1147 25.8744L14.3107 24.8938C13.1519 24.6623 12.0471 24.2046 11.064 23.549L10.5092 24.381C11.601 25.1091 12.8278 25.6173 14.1147 25.8744ZM7.74954 21.6226C7.39262 21.0872 7.08241 20.5094 6.82684 19.8924C6.57126 19.2753 6.38202 18.6474 6.25584 18.0165L7.23642 17.8204C7.34989 18.3877 7.52021 18.9532 7.75072 19.5097C7.98123 20.0662 8.26062 20.5864 8.58159 21.0679L7.74954 21.6226ZM6.25672 14.1146L7.23733 14.3105C7.4689 13.1518 7.92653 12.047 8.58212 11.0639L7.75015 10.5091C7.02204 11.6009 6.51391 12.8277 6.25672 14.1146ZM10.5086 7.74943L11.0633 8.58148C11.5447 8.26051 12.065 7.98112 12.6215 7.75061C13.178 7.5201 13.7434 7.34978 14.3108 7.23631L14.1147 6.25573C13.4838 6.38191 12.8558 6.57115 12.2388 6.82673C11.6218 7.0823 11.0439 7.39252 10.5086 7.74943ZM18.0166 6.25661L17.8206 7.23722C18.9793 7.46879 20.0842 7.92642 21.0672 8.58201L21.6221 7.75004C20.5302 7.02193 19.3035 6.5138 18.0166 6.25661Z" fill="#AF5AC4"/>
</svg>
