<svg width="32" height="32" viewBox="0 0 32 32" fill="none" xmlns="http://www.w3.org/2000/svg">
<path d="M20.7143 13.7143H25.2857V9.14282" stroke="#AF5AC4" stroke-linecap="square"/>
<path d="M10.4286 10.469C11.1943 9.6863 12.1037 9.06537 13.1048 8.64171C14.1059 8.21806 15.1789 8 16.2626 8C17.3463 8 18.4194 8.21806 19.4205 8.64171C20.4216 9.06537 21.331 9.6863 22.0967 10.469L24.7143 13.1429" stroke="#AF5AC4" stroke-linecap="square"/>
<path d="M11.5714 18.2856H7V22.8571" stroke="#AF5AC4" stroke-linecap="square"/>
<path d="M21.8571 21.5311C21.0914 22.3137 20.182 22.9347 19.1809 23.3583C18.1799 23.782 17.1068 24 16.0231 24C14.9394 24 13.8663 23.782 12.8652 23.3583C11.8642 22.9347 10.9548 22.3137 10.189 21.5311L7.57141 18.8572" stroke="#AF5AC4" stroke-linecap="square"/>
</svg>
