<svg width="32" height="32" viewBox="0 0 32 32" fill="none" xmlns="http://www.w3.org/2000/svg">
<path d="M7.87868 8.12132H12.1213V12.364" stroke="#AF5AC4"/>
<path d="M24.1213 8.12132H19.8787V12.364" stroke="#AF5AC4"/>
<path d="M7.87868 23.8787H12.1213V19.636" stroke="#AF5AC4"/>
<path d="M24.1213 23.8787H19.8787V19.636" stroke="#AF5AC4"/>
<path fill-rule="evenodd" clip-rule="evenodd" d="M12 7.93555C9.03656 9.40825 7 12.4663 7 16C7 19.5337 9.03656 22.5918 12 24.0645V22.9298C9.60879 21.5465 8 18.9612 8 16C8 13.0389 9.60879 10.4535 12 9.07028V7.93555ZM20 22.9298C22.3912 21.5465 24 18.9612 24 16C24 13.0389 22.3912 10.4535 20 9.07028V7.93555C22.9634 9.40825 25 12.4663 25 16C25 19.5337 22.9634 22.5918 20 24.0645V22.9298Z" fill="#AF5AC4"/>
</svg>
