<svg width="32" height="32" viewBox="0 0 32 32" fill="none" xmlns="http://www.w3.org/2000/svg">
<path d="M6 10.5981L10.0981 9.5L11.1962 13.5981" stroke="#AF5AC4"/>
<path d="M6 21.4019L10.0981 22.5L11.1962 18.4019" stroke="#AF5AC4"/>
<path d="M26 10.5981L21.9019 9.5L20.8038 13.5981" stroke="#AF5AC4"/>
<path d="M26 21.4019L21.9019 22.5L20.8038 18.4019" stroke="#AF5AC4"/>
<path fill-rule="evenodd" clip-rule="evenodd" d="M10 9.29168C8.15875 10.9396 7 13.3345 7 16C7 18.6655 8.15875 21.0604 10 22.7083V21.2916C8.75527 19.8814 8 18.0289 8 16C8 13.9711 8.75527 12.1186 10 10.7084V9.29168ZM22 21.2916C23.2447 19.8814 24 18.0289 24 16C24 13.9711 23.2447 12.1186 22 10.7084V9.29168C23.8412 10.9396 25 13.3345 25 16C25 18.6655 23.8412 21.0604 22 22.7083V21.2916Z" fill="#AF5AC4"/>
</svg>
