<?xml version="1.0" standalone="no"?>
<!DOCTYPE svg PUBLIC "-//W3C//DTD SVG 20010904//EN"
 "http://www.w3.org/TR/2001/REC-SVG-20010904/DTD/svg10.dtd">
<svg version="1.0" xmlns="http://www.w3.org/2000/svg"
 width="2400.000000pt" height="2400.000000pt" viewBox="0 0 2400.000000 2400.000000"
 preserveAspectRatio="xMidYMid meet">
<metadata>
Created by potrace 1.14, written by Peter Selinger 2001-2017
</metadata>
<g transform="translate(0.000000,2400.000000) scale(0.100000,-0.100000)"
fill="#000000" stroke="none">
<path d="M7578 16795 c-2 -2 -73 -6 -158 -10 -85 -4 -175 -8 -200 -10 -25 -2
-83 -6 -130 -10 -47 -3 -105 -8 -130 -11 -25 -2 -72 -7 -105 -9 -33 -3 -73 -7
-90 -9 -16 -3 -57 -7 -90 -10 -33 -3 -71 -8 -84 -11 -13 -2 -51 -7 -84 -10
-33 -3 -63 -7 -66 -9 -3 -2 -31 -7 -61 -10 -56 -7 -70 -9 -175 -27 -33 -6 -71
-12 -85 -14 -14 -2 -43 -8 -65 -13 -22 -5 -48 -8 -58 -6 -9 1 -17 -1 -17 -5 0
-4 -6 -8 -12 -8 -13 -1 -75 -11 -113 -18 -11 -2 -90 -20 -175 -41 -85 -20
-162 -37 -170 -38 -9 -1 -20 -5 -25 -8 -9 -5 -22 -8 -90 -22 -11 -3 -42 -11
-69 -20 -27 -8 -53 -13 -58 -10 -4 3 -8 0 -8 -7 0 -7 -3 -9 -7 -6 -3 4 -12 2
-19 -3 -6 -6 -16 -10 -20 -9 -5 1 -16 0 -24 -4 -19 -7 -191 -60 -205 -63 -12
-2 -213 -71 -235 -81 -8 -3 -21 -7 -27 -9 -16 -3 -332 -129 -393 -157 -25 -11
-73 -33 -107 -48 -35 -16 -63 -25 -63 -21 0 4 -4 2 -8 -4 -8 -12 -255 -134
-271 -134 -6 0 -11 -4 -11 -9 0 -5 -12 -14 -27 -20 -33 -12 -133 -68 -274
-151 -56 -33 -103 -60 -105 -60 -3 0 -10 -5 -17 -10 -7 -6 -50 -35 -97 -65
-47 -29 -90 -57 -95 -62 -6 -4 -44 -30 -85 -58 -41 -27 -84 -58 -94 -67 -11
-10 -23 -18 -27 -18 -5 0 -17 -10 -29 -22 -11 -12 -20 -18 -20 -12 0 5 -4 4
-8 -1 -4 -6 -47 -42 -97 -80 -78 -60 -175 -138 -211 -170 -6 -5 -33 -28 -59
-50 -27 -22 -57 -49 -67 -59 -10 -11 -18 -18 -18 -15 0 5 -135 -122 -255 -240
-102 -100 -253 -259 -305 -321 -25 -29 -59 -67 -75 -84 -17 -17 -42 -47 -57
-66 -15 -19 -37 -47 -50 -62 -14 -15 -33 -39 -44 -54 -10 -14 -24 -31 -29 -38
-14 -15 -115 -145 -140 -180 -11 -16 -24 -33 -30 -40 -5 -6 -26 -34 -45 -61
-19 -28 -40 -56 -47 -63 -7 -7 -13 -17 -13 -22 0 -5 -6 -15 -13 -22 -13 -14
-170 -250 -207 -313 -14 -22 -30 -46 -37 -53 -7 -7 -13 -20 -13 -28 0 -8 -4
-14 -10 -14 -5 0 -10 -4 -10 -10 0 -8 -84 -157 -130 -230 -5 -8 -20 -35 -32
-60 -13 -25 -27 -48 -33 -52 -5 -4 -6 -8 -1 -8 5 0 4 -6 -2 -12 -24 -30 -137
-249 -134 -260 1 -5 -3 -8 -9 -8 -5 0 -7 -4 -4 -10 3 -5 1 -10 -4 -10 -6 0
-10 -3 -9 -7 1 -5 -17 -46 -40 -93 -22 -47 -42 -89 -42 -95 -1 -5 -7 -17 -15
-25 -13 -16 -31 -64 -24 -66 2 -1 -5 -12 -16 -24 -11 -12 -19 -24 -17 -26 1
-2 -4 -19 -12 -37 -8 -17 -28 -66 -46 -107 -18 -41 -38 -88 -45 -105 -8 -16
-40 -100 -73 -185 -77 -199 -75 -194 -77 -202 -2 -5 -4 -10 -5 -13 -1 -3 -3
-8 -5 -12 -1 -5 -5 -15 -8 -23 -4 -8 -23 -62 -42 -120 -20 -58 -39 -112 -42
-120 -3 -8 -7 -19 -9 -25 -1 -5 -14 -43 -28 -82 -13 -40 -23 -73 -20 -73 2 0
-2 -13 -11 -30 -9 -16 -13 -30 -9 -30 4 0 1 -7 -6 -15 -7 -9 -13 -23 -14 -33
-2 -15 -17 -68 -57 -197 -19 -63 -51 -171 -55 -187 -2 -10 -6 -27 -9 -38 -3
-11 -7 -28 -9 -37 -2 -10 -14 -54 -26 -98 -29 -107 -38 -145 -35 -145 1 0 29
35 61 78 76 99 71 93 95 122 11 14 33 40 47 59 15 18 37 45 50 60 12 14 26 31
30 36 38 52 237 275 245 275 6 0 8 3 4 6 -3 3 13 26 36 52 61 67 447 451 493
491 21 19 73 64 115 100 72 63 127 110 176 149 12 9 30 24 40 32 56 46 83 67
104 82 13 9 53 38 89 65 96 71 230 163 239 163 4 0 16 9 26 20 10 11 24 20 32
20 7 0 13 4 13 9 0 5 8 12 18 15 24 9 71 37 109 64 17 12 36 22 41 22 6 0 12
3 14 8 9 20 413 219 593 292 72 29 141 57 155 63 14 6 31 9 38 8 6 -1 12 4 12
10 0 7 2 10 5 7 3 -3 45 8 93 24 74 25 218 67 285 83 10 2 28 7 39 11 11 3 30
8 41 9 30 5 62 13 62 16 0 1 9 3 20 4 11 1 45 7 75 13 59 12 92 18 155 27 22
3 51 8 65 10 116 21 292 36 437 39 51 0 93 5 93 9 0 4 9 3 20 -3 11 -6 20 -7
20 -3 0 10 62 9 78 -1 6 -3 13 -2 17 4 4 7 12 7 25 0 13 -7 21 -7 25 0 4 6 11
7 17 4 5 -4 58 -8 117 -10 112 -4 158 -7 281 -20 41 -4 83 -8 93 -8 9 0 17 -3
17 -6 0 -3 17 -5 38 -6 20 0 55 -4 77 -7 22 -4 54 -10 70 -12 53 -9 79 -13
135 -25 30 -6 66 -13 80 -15 32 -5 203 -45 255 -59 11 -3 47 -12 80 -21 64
-17 72 -19 95 -28 26 -10 124 -41 136 -43 6 -1 27 -9 45 -17 19 -8 84 -34 144
-58 141 -55 418 -195 563 -284 62 -39 121 -75 130 -80 60 -36 275 -185 287
-199 6 -7 27 -22 48 -35 20 -12 37 -27 37 -32 0 -5 5 -9 10 -9 12 0 24 -9 71
-52 16 -16 32 -28 36 -28 3 0 20 -12 37 -27 18 -16 51 -44 75 -63 24 -19 58
-48 76 -65 18 -16 49 -43 70 -60 40 -33 45 -38 190 -170 154 -141 328 -310
589 -572 133 -133 388 -390 567 -570 340 -341 487 -485 679 -663 62 -58 128
-120 146 -137 18 -18 35 -33 38 -33 2 0 20 -15 38 -32 37 -36 97 -89 178 -158
29 -25 61 -52 72 -62 10 -9 37 -31 58 -48 21 -17 48 -39 59 -48 29 -25 88 -73
161 -131 36 -28 72 -57 80 -64 9 -7 42 -32 75 -57 33 -25 62 -48 65 -51 6 -7
229 -166 278 -198 20 -13 39 -27 42 -30 11 -13 210 -141 220 -141 5 0 10 -4
10 -9 0 -5 14 -14 30 -21 17 -7 30 -16 30 -20 0 -4 8 -10 18 -13 17 -6 72 -37
82 -47 12 -12 112 -70 121 -70 5 0 9 -5 9 -10 0 -6 3 -9 8 -8 4 1 18 -5 32
-13 67 -42 174 -99 185 -99 7 0 16 -7 19 -16 4 -9 9 -14 13 -11 3 4 19 -3 34
-14 16 -11 29 -17 29 -12 0 4 4 4 8 -2 9 -12 420 -215 437 -215 1 0 29 -12 61
-27 33 -15 61 -28 64 -29 3 0 18 -6 33 -12 16 -7 52 -22 80 -33 29 -12 66 -27
82 -34 17 -7 41 -16 55 -20 14 -4 43 -16 65 -25 22 -10 69 -28 105 -40 36 -12
74 -26 85 -30 11 -5 81 -28 155 -51 74 -23 144 -45 155 -49 26 -10 96 -31 115
-34 8 -2 22 -5 30 -9 8 -3 38 -11 65 -18 28 -6 55 -15 60 -18 6 -3 19 -7 29
-8 10 -2 53 -12 95 -23 42 -10 87 -21 101 -24 14 -3 40 -9 58 -15 18 -5 35
-10 37 -10 3 -1 6 -1 8 -2 1 0 16 -3 32 -5 17 -2 48 -9 70 -14 22 -5 51 -12
65 -14 14 -3 48 -10 75 -16 28 -5 68 -13 90 -16 22 -2 46 -7 54 -10 8 -2 30
-7 50 -10 20 -2 45 -7 57 -9 12 -3 39 -7 60 -10 21 -3 64 -10 96 -16 31 -5 60
-9 65 -8 4 1 10 0 13 -1 9 -3 44 -9 95 -15 28 -4 61 -8 75 -10 14 -2 48 -6 75
-9 28 -3 68 -8 90 -11 22 -3 69 -8 105 -10 36 -3 88 -7 115 -10 28 -3 82 -7
120 -10 39 -3 95 -7 125 -10 153 -13 406 -19 790 -19 512 0 719 9 1135 50 39
4 88 8 110 10 22 1 40 3 40 4 0 1 16 3 35 5 19 2 35 4 35 5 0 1 18 4 40 5 22
2 40 4 40 5 0 1 14 3 30 5 51 4 127 15 185 25 30 5 73 12 95 15 23 3 52 7 65
10 61 12 257 48 275 50 11 2 52 11 90 20 39 9 78 17 88 18 9 1 17 4 17 7 0 3
10 5 23 6 12 0 34 4 50 7 15 4 39 9 54 13 15 3 30 7 35 10 5 3 18 7 31 10 45
8 64 13 142 34 44 12 84 23 90 24 5 1 15 4 20 8 6 3 26 9 45 14 50 11 50 11
53 14 1 1 9 3 17 5 8 1 44 13 80 25 36 12 73 23 82 25 9 2 63 20 120 40 113
40 126 44 133 45 3 0 25 9 50 20 25 11 47 20 50 20 3 0 25 9 51 20 25 11 51
20 58 20 7 0 16 3 20 7 4 5 11 8 14 9 4 0 27 10 52 21 25 11 56 24 70 28 14 4
31 12 39 18 7 6 18 12 25 13 20 3 161 68 164 76 2 4 12 8 22 8 10 0 22 5 25
10 3 6 15 10 26 10 10 0 19 4 19 9 0 7 36 22 43 18 1 -1 16 7 32 19 17 11 73
42 125 68 52 27 113 59 135 72 22 13 49 28 60 34 11 5 27 14 35 20 54 35 152
90 160 90 6 0 10 3 10 8 0 4 24 20 53 36 28 16 54 32 57 35 3 3 59 42 125 86
66 44 127 85 135 92 8 7 47 35 85 63 39 28 77 56 85 63 8 7 35 28 60 47 78 60
261 213 297 248 12 13 23 21 23 19 0 -4 138 126 245 232 95 94 249 255 310
325 28 32 59 68 70 80 11 13 29 34 40 47 72 89 121 145 130 151 5 4 6 8 2 8
-4 0 3 11 17 25 14 14 39 46 57 71 18 26 39 55 48 65 22 24 26 30 111 149 41
58 78 106 82 108 5 2 8 8 8 14 0 6 11 26 25 44 14 18 25 37 25 42 0 5 6 15 14
21 8 7 34 44 57 84 24 40 46 74 50 77 3 3 25 38 49 78 23 40 47 75 51 78 5 3
7 10 4 15 -4 5 -1 9 4 9 6 0 10 3 9 8 -1 4 14 33 35 65 20 31 37 59 37 61 0 2
25 47 55 100 30 53 51 96 47 96 -4 0 0 6 9 13 9 7 16 14 17 17 0 3 47 100 105
217 57 117 102 215 99 218 -3 3 0 5 6 5 7 0 11 3 10 8 -1 4 5 21 15 38 9 17
13 34 10 38 -4 3 -1 6 5 6 7 0 12 5 12 11 0 5 8 29 19 52 52 116 96 223 93
230 -1 4 3 7 9 7 5 0 7 5 4 10 -3 6 -1 10 6 10 7 0 10 3 6 6 -3 3 10 42 29 86
19 44 34 85 34 91 0 7 7 26 16 42 14 27 62 155 68 180 1 6 8 20 14 33 7 12 9
22 5 22 -4 0 -2 5 5 12 7 7 12 20 12 30 0 10 5 18 11 18 5 0 8 4 5 8 -4 6 69
237 75 237 1 0 10 40 11 53 1 6 4 12 8 12 4 0 7 6 7 13 1 16 51 187 63 212 5
11 12 36 16 55 3 19 9 40 12 45 4 6 7 15 9 20 14 67 26 110 32 120 3 6 6 15 6
20 1 6 7 30 15 55 7 25 13 49 12 53 -1 4 2 16 8 27 6 11 12 32 14 47 3 15 11
53 20 83 l15 55 -25 -30 c-14 -16 -37 -47 -51 -67 -14 -21 -30 -38 -34 -38 -5
0 -9 -6 -9 -14 0 -8 -3 -16 -7 -18 -5 -1 -44 -48 -88 -103 -102 -127 -104
-130 -139 -168 -15 -18 -39 -47 -53 -65 -14 -18 -41 -49 -60 -70 -19 -20 -58
-63 -86 -95 -29 -32 -145 -152 -258 -265 -209 -210 -266 -263 -429 -402 -29
-25 -62 -53 -74 -64 -11 -10 -37 -30 -56 -45 -19 -14 -37 -28 -40 -31 -3 -4
-23 -19 -45 -35 -22 -17 -42 -32 -45 -35 -19 -19 -132 -100 -140 -100 -5 0
-13 -6 -17 -12 -4 -7 -16 -17 -25 -23 -9 -5 -68 -44 -130 -86 -62 -41 -129
-84 -148 -95 -19 -10 -36 -22 -38 -26 -2 -5 -10 -8 -18 -8 -8 0 -14 -3 -14 -7
0 -5 -27 -21 -60 -38 -33 -16 -60 -32 -60 -36 0 -4 -11 -10 -25 -13 -13 -3
-41 -17 -61 -31 -20 -14 -40 -22 -45 -19 -5 3 -9 1 -9 -5 0 -5 -16 -15 -35
-22 -19 -7 -35 -17 -35 -21 0 -4 -9 -8 -20 -8 -11 0 -20 -5 -20 -12 0 -6 -3
-9 -6 -6 -3 4 -31 -6 -62 -22 -31 -15 -79 -37 -107 -49 -27 -12 -59 -26 -70
-31 -44 -19 -165 -64 -245 -92 -47 -16 -92 -32 -100 -35 -8 -3 -19 -7 -25 -8
-5 -2 -37 -11 -70 -21 -33 -10 -64 -19 -70 -20 -5 -1 -13 -3 -17 -4 -5 -1 -12
-4 -18 -5 -5 -1 -11 -3 -12 -5 -2 -1 -10 -3 -18 -5 -8 -2 -24 -6 -35 -9 -132
-33 -393 -84 -465 -91 -42 -4 -77 -9 -155 -20 -55 -8 -219 -19 -297 -19 -43
-1 -78 -5 -78 -9 0 -4 -9 -3 -19 3 -11 5 -22 6 -25 1 -6 -9 -60 -6 -77 4 -5 4
-9 2 -9 -4 0 -7 -8 -7 -25 -1 -17 6 -25 6 -25 -1 0 -6 -5 -7 -11 -4 -6 4 -61
9 -122 11 -62 2 -134 6 -162 8 -140 12 -192 18 -215 22 -14 2 -45 7 -70 10
-25 3 -54 7 -65 9 -11 2 -41 6 -66 10 -26 3 -58 8 -70 11 -13 3 -37 7 -54 10
-16 3 -41 8 -55 11 -14 3 -38 7 -55 10 -16 2 -37 7 -45 10 -8 3 -22 7 -30 9
-8 2 -31 6 -50 10 -19 4 -42 8 -50 10 -15 3 -39 9 -142 39 -32 9 -59 16 -60
16 -2 -1 -61 19 -133 44 -71 25 -134 47 -140 49 -5 2 -23 8 -38 14 -104 43
-140 59 -207 90 -41 19 -77 34 -79 33 -2 -2 -7 1 -10 6 -3 4 -37 24 -76 43
-38 19 -82 43 -97 53 -16 10 -28 15 -28 10 0 -4 -4 -3 -8 3 -4 6 -25 21 -47
33 -47 25 -44 23 -210 130 -71 46 -131 87 -133 92 -2 5 -9 9 -16 9 -7 0 -21 9
-31 20 -10 11 -24 20 -31 20 -7 0 -14 3 -16 8 -1 4 -30 27 -63 52 -33 25 -65
50 -71 55 -6 6 -23 19 -39 30 -29 21 -192 152 -211 170 -6 5 -33 29 -60 52
-289 244 -502 450 -1327 1282 -180 182 -333 331 -339 331 -6 0 -9 3 -6 6 3 3
-19 29 -49 57 -29 29 -98 95 -152 147 -128 124 -241 230 -325 305 -37 33 -84
76 -105 95 -21 19 -64 58 -96 85 -32 28 -63 55 -69 60 -13 12 -192 162 -249
209 -22 17 -44 36 -50 41 -13 11 -97 78 -197 155 -36 28 -73 57 -82 65 -10 8
-18 12 -18 8 0 -3 -8 4 -19 15 -10 12 -23 22 -29 22 -6 0 -12 4 -14 8 -2 4
-34 30 -73 57 -38 27 -72 52 -75 55 -3 3 -12 10 -22 15 -9 6 -76 51 -149 100
-74 50 -138 92 -143 94 -6 2 -15 8 -21 13 -5 5 -44 29 -85 55 -41 25 -86 53
-100 62 -14 9 -34 21 -45 27 -97 54 -121 68 -130 75 -15 11 -150 85 -205 111
-25 12 -46 26 -48 30 -2 4 -12 8 -23 8 -10 0 -19 5 -19 10 0 6 -4 10 -9 10 -4
0 -93 41 -197 91 -104 49 -198 94 -209 99 -11 4 -38 16 -60 26 -22 10 -42 19
-45 19 -3 1 -18 7 -33 13 -16 7 -52 22 -80 33 -29 12 -65 27 -82 34 -54 24
-169 66 -210 77 -22 6 -43 16 -47 22 -4 6 -8 8 -8 3 0 -4 -13 -1 -30 8 -16 9
-30 13 -30 10 0 -3 -9 -1 -21 5 -11 6 -28 13 -37 15 -24 5 -84 26 -104 36 -10
5 -26 9 -36 9 -10 0 -22 3 -26 7 -3 4 -12 8 -19 10 -7 1 -19 4 -27 6 -18 4
-129 37 -150 45 -8 3 -21 6 -28 8 -59 12 -112 29 -112 36 0 5 -4 7 -8 4 -4 -3
-69 10 -143 29 -73 19 -147 36 -164 39 -16 2 -31 5 -32 6 -2 2 -7 4 -13 5 -5
1 -11 3 -12 4 -2 2 -14 4 -28 6 -14 2 -47 9 -75 15 -27 6 -61 12 -75 15 -14 2
-34 6 -45 8 -32 8 -197 38 -225 42 -14 2 -38 6 -55 9 -48 8 -87 14 -135 20
-25 3 -56 8 -70 11 -22 4 -77 11 -160 20 -14 2 -25 4 -25 5 0 1 -20 4 -45 5
-25 2 -65 6 -90 10 -49 6 -158 16 -202 18 -16 0 -28 3 -28 6 0 3 -26 6 -58 7
-31 0 -106 4 -167 8 -60 4 -144 10 -185 13 -85 5 -1017 12 -1022 8z"/>
</g>
</svg>
