<svg width="110" height="53" viewBox="0 0 110 53" fill="none" xmlns="http://www.w3.org/2000/svg">
<mask id="mask0_259_961" style="mask-type:alpha" maskUnits="userSpaceOnUse" x="0" y="0" width="110" height="53">
<rect width="110" height="53" fill="#D9D9D9"/>
</mask>
<g mask="url(#mask0_259_961)">
<g opacity="0.05">
<path fill-rule="evenodd" clip-rule="evenodd" d="M25.6339 0.705566C17.7503 0.705566 12.8237 4.37966 10.854 11.7233C13.811 8.04923 17.2615 6.67484 21.2009 7.5911C23.4513 8.11273 25.058 9.6368 26.839 11.3196C29.7379 14.0593 33.0917 17.2299 40.4187 17.2299C48.3023 17.2299 53.229 13.5604 55.1987 6.21218C52.2417 9.88628 48.7911 11.2607 44.8517 10.3444C42.6013 9.81824 40.9946 8.2987 39.2185 6.61587C36.3148 3.87618 32.961 0.705566 25.6339 0.705566Z" fill="#74EEFF"/>
<path fill-rule="evenodd" clip-rule="evenodd" d="M80.0568 27.9224C72.1732 27.9224 67.2465 31.5965 65.2769 38.9401C68.2338 35.266 71.6844 33.8916 75.6238 34.8079C77.8742 35.3295 79.4809 36.8536 81.2618 38.5364C84.1607 41.2761 87.5145 44.4467 94.8416 44.4467C102.725 44.4467 107.652 40.7772 109.622 33.429C106.665 37.1031 103.214 38.4775 99.2746 37.5612C97.0242 37.035 95.4175 35.5155 93.6414 33.8327C90.7376 31.093 87.3838 27.9224 80.0568 27.9224Z" fill="#74EEFF"/>
</g>
</g>
</svg>
