<svg width="18" height="15" viewBox="0 0 18 15" fill="none" xmlns="http://www.w3.org/2000/svg">
<path d="M1 6.75H0.5L0.5 7.75H1L1 6.75ZM16 7.75H16.5V6.75H16V7.75ZM1 7.75L16 7.75V6.75L1 6.75L1 7.75Z" fill="white"/>
<path d="M11.3536 0.646447L11 0.292893L10.2929 1L10.6464 1.35355L11.3536 0.646447ZM17.25 7.25L17.6036 7.60355L17.9571 7.25L17.6036 6.89645L17.25 7.25ZM10.6464 13.1464L10.2929 13.5L11 14.2071L11.3536 13.8536L10.6464 13.1464ZM10.6464 1.35355L16.8964 7.60355L17.6036 6.89645L11.3536 0.646447L10.6464 1.35355ZM16.8964 6.89645L10.6464 13.1464L11.3536 13.8536L17.6036 7.60355L16.8964 6.89645Z" fill="white"/>
</svg>
