<svg width="30" height="30" viewBox="0 0 30 30" fill="none" xmlns="http://www.w3.org/2000/svg">
<path fill-rule="evenodd" clip-rule="evenodd" d="M14.999 0.0493927C6.71648 0.0493927 0 6.76504 0 15.0503C0 21.6769 4.29754 27.299 10.2587 29.2828C11.0087 29.4204 11.2824 28.9573 11.2824 28.5597C11.2824 28.2037 11.2695 27.2604 11.2622 26.0086C7.08971 26.915 6.2093 23.9978 6.2093 23.9978C5.52723 22.265 4.54387 21.8037 4.54387 21.8037C3.18195 20.873 4.64691 20.8919 4.64691 20.8919C6.15221 20.9979 6.94449 22.4377 6.94449 22.4377C8.28256 24.7299 10.4552 24.068 11.3099 23.684C11.4462 22.7146 11.8337 22.0537 12.2622 21.6787C8.93138 21.3001 5.42972 20.0133 5.42972 14.2652C5.42972 12.6277 6.01418 11.2887 6.97368 10.2402C6.81944 9.86071 6.30469 8.33562 7.12074 6.27046C7.12074 6.27046 8.38016 5.86714 11.2456 7.80817C12.4421 7.47547 13.7252 7.30907 15.0009 7.30327C16.2747 7.30907 17.558 7.47547 18.7561 7.80817C21.6199 5.86714 22.877 6.27046 22.877 6.27046C23.6953 8.33562 23.1805 9.86071 23.0262 10.2402C23.9876 11.2887 24.5681 12.6277 24.5681 14.2652C24.5681 20.0276 21.061 21.2956 17.7194 21.667C18.258 22.1301 18.7377 23.0456 18.7377 24.4448C18.7377 26.4501 18.7193 28.0679 18.7193 28.5597C18.7193 28.9609 18.9895 29.4275 19.7507 29.281C25.706 27.2936 30 21.6751 30 15.0503C30 6.76504 23.2834 0.0493927 14.999 0.0493927Z" fill="white"/>
</svg>
