<svg width="32" height="14" viewBox="0 0 32 14" fill="none" xmlns="http://www.w3.org/2000/svg">
<path d="M13.1 4C11.246 2.278 9.281 1 7 1C5.4087 1 3.88258 1.63214 2.75736 2.75736C1.63214 3.88258 1 5.4087 1 7C1 8.5913 1.63214 10.1174 2.75736 11.2426C3.88258 12.3679 5.4087 13 7 13C14 13 18 1 25 1C26.5913 1 28.1174 1.63214 29.2426 2.75736C30.3679 3.88258 31 5.4087 31 7C31 8.5913 30.3679 10.1174 29.2426 11.2426C28.1174 12.3679 26.5913 13 25 13C22.716 13 20.751 11.722 18.9 10" stroke="#86879C" stroke-width="2" stroke-miterlimit="10" stroke-linecap="square"/>
</svg>
