<svg width="31" height="30" viewBox="0 0 31 30" fill="none" xmlns="http://www.w3.org/2000/svg">
<path d="M15.4998 3.7275C19.2935 3.7275 19.743 3.74125 21.2413 3.8075C22.1421 3.81765 23.0343 3.97792 23.8789 4.28125C24.4963 4.50138 25.0547 4.85296 25.5128 5.31C25.9851 5.75336 26.3484 6.29376 26.5759 6.89125C26.8893 7.70856 27.0549 8.57202 27.0654 9.44375C27.1339 10.8938 27.1481 11.3287 27.1481 15C27.1481 18.6712 27.1339 19.1062 27.0654 20.5562C27.0549 21.428 26.8893 22.2914 26.5759 23.1087C26.3394 23.7018 25.9773 24.2405 25.5128 24.69C25.0483 25.1395 24.4917 25.4899 23.8789 25.7188C23.0343 26.0221 22.1421 26.1823 21.2413 26.1925C19.743 26.2588 19.2935 26.2725 15.4998 26.2725C11.7062 26.2725 11.2567 26.2588 9.75838 26.1925C8.85759 26.1823 7.96535 26.0221 7.1208 25.7188C6.50338 25.4986 5.94498 25.147 5.48684 24.69C5.01456 24.2466 4.65126 23.7062 4.4238 23.1087C4.11035 22.2914 3.94475 21.428 3.93425 20.5562C3.8658 19.1062 3.85159 18.6712 3.85159 15C3.85159 11.3287 3.8658 10.8938 3.93425 9.44375C3.94475 8.57202 4.11035 7.70856 4.4238 6.89125C4.65126 6.29376 5.01456 5.75336 5.48684 5.31C5.94498 4.85296 6.50338 4.50138 7.1208 4.28125C7.96535 3.97792 8.85759 3.81765 9.75838 3.8075C11.2567 3.74125 11.7062 3.7275 15.4998 3.7275ZM15.4998 1.25C11.6416 1.25 11.1573 1.26625 9.64213 1.3325C8.46359 1.35607 7.29762 1.57202 6.19338 1.97125C5.24859 2.32521 4.39073 2.86648 3.6749 3.5603C2.95907 4.25411 2.40109 5.08514 2.0368 6C1.62426 7.06862 1.40111 8.19698 1.37675 9.3375C1.3083 10.7975 1.2915 11.2662 1.2915 15C1.2915 18.7337 1.3083 19.2025 1.37675 20.6688C1.40111 21.8093 1.62426 22.9376 2.0368 24.0063C2.40256 24.9206 2.96187 25.7507 3.67881 26.4435C4.39575 27.1362 5.25448 27.6762 6.19984 28.0288C7.30408 28.428 8.47005 28.6439 9.64859 28.6675C11.1573 28.7337 11.6416 28.75 15.4998 28.75C19.358 28.75 19.8424 28.7337 21.3575 28.6675C22.5361 28.6439 23.702 28.428 24.8063 28.0288C25.7511 27.6748 26.6089 27.1335 27.3248 26.4397C28.0406 25.7459 28.5986 24.9149 28.9629 24C29.3754 22.9314 29.5986 21.803 29.6229 20.6625C29.6914 19.2025 29.7082 18.7337 29.7082 15C29.7082 11.2662 29.6914 10.7975 29.6229 9.33125C29.5986 8.19073 29.3754 7.06237 28.9629 5.99375C28.5971 5.07943 28.0378 4.24925 27.3209 3.55651C26.6039 2.86377 25.7452 2.32379 24.7998 1.97125C23.6956 1.57202 22.5296 1.35607 21.3511 1.3325C19.8424 1.26625 19.358 1.25 15.4998 1.25Z" fill="white"/>
<path d="M15.4998 7.93872C14.0566 7.93872 12.6459 8.35286 11.446 9.12876C10.246 9.90466 9.31081 11.0075 8.75855 12.2977C8.20629 13.588 8.06179 15.0078 8.34333 16.3776C8.62487 17.7473 9.31981 19.0055 10.3403 19.993C11.3607 20.9806 12.6608 21.6531 14.0763 21.9255C15.4917 22.198 16.9588 22.0582 18.2921 21.5237C19.6253 20.9893 20.7649 20.0842 21.5667 18.923C22.3684 17.7618 22.7964 16.3966 22.7964 15C22.7964 13.1272 22.0276 11.3312 20.6592 10.0069C19.2909 8.68267 17.4349 7.93872 15.4998 7.93872ZM15.4998 19.5837C14.563 19.5837 13.6472 19.3149 12.8683 18.8112C12.0894 18.3076 11.4823 17.5917 11.1238 16.7541C10.7653 15.9165 10.6715 14.9949 10.8542 14.1057C11.037 13.2166 11.4881 12.3998 12.1505 11.7588C12.8129 11.1177 13.6569 10.6812 14.5757 10.5043C15.4945 10.3274 16.4469 10.4182 17.3124 10.7651C18.1778 11.1121 18.9176 11.6996 19.438 12.4534C19.9585 13.2072 20.2363 14.0934 20.2363 15C20.2363 16.2157 19.7373 17.3816 18.849 18.2412C17.9607 19.1008 16.756 19.5837 15.4998 19.5837Z" fill="white"/>
<path d="M23.0844 9.31001C24.026 9.31001 24.7894 8.57128 24.7894 7.66001C24.7894 6.74874 24.026 6.01001 23.0844 6.01001C22.1427 6.01001 21.3794 6.74874 21.3794 7.66001C21.3794 8.57128 22.1427 9.31001 23.0844 9.31001Z" fill="white"/>
</svg>
