<svg width="20" height="18" viewBox="0 0 20 18" fill="none" xmlns="http://www.w3.org/2000/svg">
<path d="M19.8684 15.6912L14.8684 5.69119C14.6771 5.30994 14.3059 5.05119 13.8821 5.00744C13.4596 4.95869 13.0409 5.13744 12.7746 5.46869L8.48962 10.8237L5.69337 8.95994C5.40837 8.77119 5.05712 8.70494 4.72587 8.77994C4.39212 8.85494 4.10337 9.06369 3.92837 9.35619L0.178375 15.6062C-0.0541254 15.9924 -0.0591255 16.4724 0.162125 16.8662C0.383375 17.2587 0.799625 17.4999 1.24962 17.4999H18.7496C19.1834 17.4999 19.5846 17.2749 19.8134 16.9062C20.0421 16.5374 20.0609 16.0774 19.8684 15.6912Z" fill="#AF5AC4"/>
<path d="M7.49951 5C8.88022 5 9.99951 3.88071 9.99951 2.5C9.99951 1.11929 8.88022 0 7.49951 0C6.1188 0 4.99951 1.11929 4.99951 2.5C4.99951 3.88071 6.1188 5 7.49951 5Z" fill="#AF5AC4"/>
</svg>
