<svg width="31" height="30" viewBox="0 0 31 30" fill="none" xmlns="http://www.w3.org/2000/svg">
<g clip-path="url(#clip0_172_1009)">
<path d="M15.5 0C12.4344 0 9.43763 0.879735 6.88867 2.52796C4.33971 4.17618 2.35303 6.51886 1.17987 9.25975C0.00671593 12.0006 -0.300236 15.0166 0.297835 17.9264C0.895906 20.8361 2.37214 23.5088 4.53985 25.6066C6.70757 27.7044 9.4694 29.133 12.4761 29.7118C15.4828 30.2906 18.5993 29.9935 21.4316 28.8582C24.2639 27.7229 26.6846 25.8003 28.3878 23.3336C30.0909 20.8668 31 17.9667 31 15C30.9956 11.0231 29.3611 7.21026 26.4553 4.39815C23.5494 1.58604 19.6095 0.00430135 15.5 0V0ZM15.5 27.5C13.7837 27.5009 12.0845 27.1696 10.5025 26.5256C8.92043 25.8816 7.48745 24.9379 6.28784 23.75L8.16721 22.2225C8.35799 22.0673 8.49828 21.8619 8.57117 21.6313C8.64405 21.4006 8.64641 21.1544 8.57796 20.9225L7.6738 17.8325C7.61702 17.6418 7.51482 17.4667 7.37542 17.3213L5.77892 15.67L5.53738 15.2712L6.36405 14.5875L9.57642 13.015C9.76091 12.9247 9.92031 12.7929 10.0412 12.6307C10.1622 12.4684 10.2411 12.2804 10.2713 12.0825L10.788 8.6575C10.8169 8.4728 10.8027 8.28417 10.7464 8.10549C10.69 7.92681 10.593 7.76263 10.4625 7.625L8.33255 5.425C8.29496 5.38507 8.25438 5.34789 8.21113 5.31375L7.80038 4.9875C9.8742 3.48678 12.3689 2.62873 14.9562 2.52625L15.5349 3.4575L16.2918 5.59875C16.3716 5.82183 16.5143 6.01884 16.7038 6.1675L19.654 8.46375C19.8835 8.64252 20.1693 8.73999 20.4639 8.74C20.5148 8.7402 20.5657 8.73728 20.6163 8.73125L24.4913 8.28625C24.6616 8.26629 24.8262 8.21405 24.9757 8.1325L25.9031 7.6225C27.3192 9.48218 28.1739 11.6858 28.3721 13.9879C28.5703 16.29 28.1042 18.6001 27.0256 20.6609C25.9471 22.7217 24.2985 24.4523 22.2635 25.6598C20.2285 26.8673 17.8871 27.5044 15.5 27.5Z" fill="white"/>
<path d="M25.6963 15.5513L24.2303 12.8288C24.1448 12.6699 24.025 12.5306 23.8791 12.4204C23.7331 12.3102 23.5643 12.2316 23.3843 12.1901L20.3398 11.4851C20.0983 11.4291 19.8453 11.4422 19.6113 11.5226L16.7348 12.5001C16.5057 12.5774 16.3039 12.7156 16.1522 12.8988L14.424 15.3651C14.2397 15.7252 14.206 16.1402 14.3297 16.5238L15.3785 19.1013L14.7327 21.2501C14.6876 21.4322 14.686 21.6219 14.7281 21.8047C14.7701 21.9875 14.8548 22.1587 14.9755 22.3051L15.8241 24.4738C15.9454 24.6162 16.0976 24.7308 16.27 24.8094C16.4424 24.8881 16.6307 24.9289 16.8213 24.9288H16.904L19.9252 24.7413C20.2231 24.7227 20.5052 24.6047 20.7234 24.4076L22.9993 22.3563C23.1269 22.2419 23.2293 22.1037 23.3003 21.9501L25.7312 16.6376C25.8103 16.4656 25.8482 16.2787 25.8421 16.0906C25.8361 15.9025 25.7863 15.7182 25.6963 15.5513Z" fill="white"/>
</g>
<defs>
<clipPath id="clip0_172_1009">
<rect width="31" height="30" fill="white"/>
</clipPath>
</defs>
</svg>
